<?xml version="1.0" encoding="utf-8"?>
<!-- Generator: Adobe Illustrator 16.0.0, SVG Export Plug-In . SVG Version: 6.00 Build 0)  -->
<!DOCTYPE svg PUBLIC "-//W3C//DTD SVG 1.1//EN" "http://www.w3.org/Graphics/SVG/1.1/DTD/svg11.dtd">
<svg version="1.1" xmlns="http://www.w3.org/2000/svg" xmlns:xlink="http://www.w3.org/1999/xlink" x="0px" y="0px" width="319px"
	 height="172px" viewBox="0 0 319 172" style="enable-background:new 0 0 319 172;" xml:space="preserve">
<style type="text/css">
<![CDATA[
	.st0{display:inline;fill:#4A4A4A;}
	.st1{display:inline;fill:#E5E0DE;}
	.st2{fill:#484848;}
	.st3{fill:#ABA2A7;}
	.st4{fill:#7E795D;}
	.st5{display:inline;fill:#828381;}
	.st6{display:inline;fill:#B1B1B1;}
	.st7{fill:#E3D2BE;}
	.st8{fill:#E3DDE1;}
	.st9{display:inline;fill:#B3B0AC;}
	.st10{fill:#E5E1E2;}
	.st11{fill:#E6D3D7;}
	.st12{display:inline;fill:#1C1C1C;}
	.st13{display:inline;fill:#EAE5E0;}
	.st14{display:inline;fill:#1D1D1D;}
	.st15{display:inline;fill:#B8C0C5;}
	.st16{fill:#E9F1F1;}
	.st17{display:inline;fill:#1F1F1F;}
	.st18{display:inline;fill:#EDE8E8;}
	.st19{display:inline;fill:#EEEAE5;}
	.st20{fill:#86838D;}
	.st21{fill:#B6AF84;}
	.st22{display:inline;fill:#575757;}
	.st23{display:inline;fill:#BAB4AF;}
	.st24{display:inline;fill:#BAB8B7;}
	.st25{display:inline;fill:#BBB7B4;}
	.st26{fill:#B8C0C5;}
	.st27{fill:#EDE8E8;}
	.st28{display:inline;fill:#8E8E8E;}
	.st29{display:inline;fill:#202020;}
	.st30{fill:#EEEAE5;}
	.st31{display:inline;fill:#BEBEBE;}
	.st32{opacity:0;fill:#01748D;}
	.st33{fill:#554A4C;}
	.st34{fill:#8A8665;}
	.st35{display:inline;fill:#272727;}
	.st36{fill:#BBBBBF;}
	.st37{fill:#595959;}
	.st38{display:inline;fill:#5D5B5B;}
	.st39{fill:#BDB4B1;}
	.st40{display:inline;fill:#F8F5F6;}
	.st41{display:inline;fill:#F9F8DC;}
	.st42{display:inline;fill:#939395;}
	.st43{display:inline;fill:#C3BFBC;}
	.st44{fill:#F4C6A4;}
	.st45{fill:#F5F5F5;}
	.st46{display:inline;fill:#979797;}
	.st47{fill:#292E38;}
	.st48{display:inline;fill:#FAF8F4;}
	.st49{fill:#5D5C46;}
	.st50{display:inline;fill:#C79E7D;}
	.st51{display:inline;fill:#98916E;}
	.st52{fill:#F8F5F6;}
	.st53{display:inline;fill:#2E2E2E;}
	.st54{fill:#F9B26B;}
	.st55{display:inline;fill:#FCFCFC;}
	.st56{display:inline;fill:#FF0000;stroke:#000000;stroke-width:0.4;stroke-miterlimit:10;}
	.st57{display:inline;fill:#FFFFFF;}
	.st58{display:inline;fill:#656565;}
	.st59{display:inline;opacity:0.3;fill:#777777;}
	.st60{fill:none;stroke:#D0C792;stroke-width:0.1;stroke-miterlimit:10;}
	.st61{fill:#FAF5F7;}
	.st62{fill:#2CC9B5;}
	.st63{display:inline;fill:#CACACA;}
	.st64{fill:#98916E;}
	.st65{fill:#2D2D2C;}
	.st66{display:inline;fill:#302E2D;}
	.st67{display:inline;fill:#CECAC8;}
	.st68{fill:#FFEAEA;}
	.st69{fill:#FFFBF9;}
	.st70{fill:#FFFFFF;}
	.st71{display:inline;fill:#CFD2D9;}
	.st72{display:inline;fill:#333333;}
	.st73{display:inline;fill:#343533;}
	.st74{display:inline;fill:#353535;}
	.st75{fill:#66565B;}
	.st76{fill:#675244;}
	.st77{display:inline;fill:#6AA540;}
	.st78{display:inline;}
	.st79{display:inline;fill:#00738D;}
	.st80{display:inline;fill:#00803C;}
	.st81{fill:#CFD2D9;}
	.st82{display:inline;fill:#D3CECD;}
	.st83{fill:#393939;}
	.st84{fill:#00738D;}
	.st85{fill:#D0C6B8;}
	.st86{fill:#D0C792;}
	.st87{display:inline;fill:#727272;}
	.st88{display:inline;fill:#73B345;}
	.st89{display:inline;fill:#756352;}
	.st90{display:inline;fill:#A6A5A2;}
	.st91{display:inline;fill:#A7AE95;}
	.st92{fill:#D9D5D7;}
	.st93{fill:#71523E;}
	.st94{display:none;}
	.st95{display:inline;fill:#414141;}
	.st96{display:inline;fill:#424242;}
	.st97{display:inline;fill:#434343;}
	.st98{fill:#756352;}
	.st99{display:inline;fill:#466A2F;}
	.st100{display:inline;fill:#AAA9A8;}
	.st101{fill:#A99D8A;}
	.st102{display:inline;fill:#ACA7A2;}
	.st103{display:inline;fill:#AD921F;}
]]>
</style>
<g id="afbeelding" class="st94">
	
		<image style="display:inline;overflow:visible;" width="1000" height="1000" xlink:href="../../../DIYmall-Kracht-Gevoelige-Weerstand-0-5-Weerstand-Druksensor-Voor-font-b-Arduino-b-font-Door-diy.jpg"  transform="matrix(0.3073 0 0 0.3073 3.3857 -61.3335)">
	</image>
</g>
<g id="druksensor_1_">
	<path class="st10" d="M236.92,132.92l27.63,7.75c0,0,1.63,1,2.38-1l8.13-28.25c0,0,1.38-2.13-1-2.75l-27.38-7.5L236.92,132.92z"/>
	<path class="st92" d="M262.17,132.75l11.5,3.42c0,0,1.83,0.92,2.67-0.83c0,0,0.58-0.25,1.17-0.08l12.33,3.83
		c0,0,2.83,0.75,3.25-1.25s-0.33-0.17-0.33-0.17l-18.5-5.17l-11.58-0.4L262.17,132.75z"/>
	<path class="st61" d="M249.17,128.67l25.42,7c0,0,0.92,0.25,1.08-0.92c0,0,0.08-0.5,2.08,0l12.58,3.75c0,0,2.25,0.33,2.42-0.83
		c0,0,0.67-1-2-1.92l-13.92-4l0.33-1.25c0,0-0.33-1.08-1.67-1.33l-24.58-6.75L249.17,128.67"/>
	<path class="st62" d="M96.83,92.33c0,0,3.33-0.42,12.08,2.58l128,38l9.75-31.75L107.83,60C107.83,60,95.5,88.5,96.83,92.33z"/>
	<path d="M26.17,49.83c0,0,10.67-22,36.33-24c0,0,23.67-3,38,18.83c0,0,3.67,6.17,4.33,12.17c0,0,1.83,2.83,3,3.17l-11,32.33
		c0,0-3.67-0.33-6,1.67c0,0-23.17,19.67-49,4.83C41.83,98.83,12.92,83.25,26.17,49.83z"/>
	<path class="st47" d="M30.17,60.04c0,0,2.75-9.88,5.75-12.75l10.5-9.25l15.88-4.88l9,0.75c0,0,13.38,4.5,13.5,4.88
		s10.25,12.88,10.25,12.88l2.74,15.06l5.51,6.69l-1.5,4.25l-10,2.88l-5.5,5.25l-16.51,8l-16.74,0.13l-13.38-8.13l-6.4-8.97
		L30.17,60.04"/>
	<path class="st101" d="M30.17,60.04c0,0-3.38,15.75,8.13,26.5c0,0,11.13,13,33.63,8.38c0,0,14.13-4.13,19.63-13.63l157.63,47.38
		l2.88-6l-159.38-48c0,0-5,11.5-16.5,15.75c0,0-14.88,7.38-30.13-1.63c0,0-11.38-7-13-17.5c0,0-1.25-7.13-0.38-11L30.17,60.04z"/>
	<path class="st101" d="M34.79,48.17c0,0,9.38-15.63,29.63-16.13c0,0,17-1.75,28.25,13.75c0,0,6.38,7.63,5.38,18.88l157.46,47
		l-2.96,7L94,70.67c0,0,4.42-12.42-2.5-22.17c0,0-7.58-13.75-26.67-14.25c0,0-17.33-0.33-27.92,15.33L34.79,48.17z"/>
	<path class="st101" d="M31.3,67.38c-0.15,0.37,0.08,0.8,0.49,0.96l0,0c0.42,0.17,0.88,0,1.02-0.36l6.36-15.96
		c0.15-0.37-0.08-0.8-0.5-0.96l0,0c-0.42-0.17-0.87-0.01-1.02,0.36L31.3,67.38z"/>
	<path class="st101" d="M34.59,65.34c-0.24,0.59-0.09,1.21,0.33,1.38l0,0c0.42,0.16,0.95-0.18,1.19-0.78l10.35-25.98
		c0.24-0.6,0.09-1.21-0.33-1.38l0,0c-0.42-0.16-0.95,0.18-1.19,0.77L34.59,65.34z"/>
	<path class="st101" d="M33.02,75.22c-0.29,0.72-0.18,1.43,0.24,1.6l0,0c0.42,0.16,0.99-0.28,1.27-0.99l12.45-31.26
		c0.29-0.72,0.18-1.43-0.24-1.6l0,0c-0.42-0.16-0.99,0.28-1.27,0.99L33.02,75.22z"/>
	<path class="st101" d="M36.4,72.61c-0.32,0.81-0.25,1.6,0.17,1.77l0,0c0.42,0.16,1.02-0.36,1.34-1.17l14.1-35.4
		c0.32-0.81,0.24-1.6-0.17-1.77l0,0c-0.42-0.16-1.02,0.35-1.34,1.16L36.4,72.61z"/>
	<path class="st101" d="M36,79.64c-0.36,0.89-0.31,1.75,0.11,1.92l0,0c0.42,0.16,1.05-0.42,1.4-1.32l15.56-39.08
		c0.36-0.9,0.3-1.75-0.11-1.92l0,0c-0.42-0.16-1.04,0.42-1.4,1.31L36,79.64z"/>
	<path class="st101" d="M39.32,77.29c-0.39,0.98-0.37,1.92,0.05,2.08l0,0c0.42,0.16,1.08-0.5,1.47-1.48l17.12-42.97
		c0.39-0.99,0.37-1.92-0.05-2.08l0,0c-0.42-0.16-1.07,0.49-1.47,1.48L39.32,77.29z"/>
	<path class="st101" d="M39,84.28c-0.41,1.03-0.4,2,0.02,2.17l0,0c0.42,0.16,1.09-0.53,1.5-1.56l17.9-44.95
		c0.41-1.03,0.4-2-0.02-2.16l0,0c-0.42-0.16-1.09,0.53-1.5,1.56L39,84.28z"/>
	<path class="st101" d="M42.83,81.38c-0.43,1.07-0.44,2.08-0.02,2.25l0,0c0.42,0.16,1.1-0.57,1.53-1.64l18.66-46.85
		c0.43-1.07,0.43-2.08,0.02-2.24l0,0c-0.42-0.16-1.1,0.57-1.53,1.64L42.83,81.38z"/>
	<path class="st101" d="M42.93,87.31c-0.44,1.11-0.46,2.15-0.05,2.32l0,0c0.42,0.16,1.12-0.6,1.56-1.71L63.8,39.29
		c0.44-1.12,0.46-2.15,0.04-2.32l0,0c-0.42-0.16-1.12,0.6-1.56,1.71L42.93,87.31z"/>
	<path class="st101" d="M46.65,84.38c-0.46,1.14-0.49,2.21-0.07,2.37l0,0c0.42,0.16,1.13-0.63,1.58-1.77l19.9-49.96
		c0.46-1.14,0.48-2.21,0.07-2.37l0,0c-0.42-0.16-1.13,0.62-1.58,1.76L46.65,84.38z"/>
	<path class="st101" d="M47.29,88.86c-0.49,1.22-0.54,2.35-0.13,2.52l0,0c0.42,0.16,1.15-0.69,1.64-1.91L70.1,36
		c0.49-1.23,0.54-2.35,0.12-2.52l0,0c-0.42-0.16-1.15,0.69-1.64,1.91L47.29,88.86z"/>
	<path class="st101" d="M88.8,75.54c-0.15,0.37,0.08,0.8,0.49,0.96l0,0c0.42,0.17,0.88,0,1.02-0.36l6.36-15.96
		c0.15-0.37-0.08-0.8-0.5-0.96l0,0c-0.42-0.17-0.87-0.01-1.02,0.36L88.8,75.54z"/>
	<path class="st101" d="M81.66,87c-0.23,0.57-0.07,1.17,0.34,1.34l0,0c0.42,0.16,0.94-0.17,1.17-0.74l9.97-25.04
		c0.23-0.58,0.07-1.17-0.35-1.34l0,0c-0.42-0.16-0.94,0.16-1.17,0.74L81.66,87z"/>
	<path class="st101" d="M80.75,83.16c-0.28,0.69-0.16,1.39,0.26,1.56l0,0c0.42,0.16,0.98-0.26,1.26-0.95l12.07-30.3
		c0.28-0.7,0.16-1.39-0.26-1.56l0,0c-0.42-0.16-0.98,0.26-1.26,0.95L80.75,83.16z"/>
	<path class="st101" d="M75.46,89.93c-0.33,0.82-0.25,1.62,0.17,1.79l0,0c0.42,0.16,1.02-0.36,1.35-1.18l14.24-35.76
		c0.33-0.82,0.25-1.62-0.17-1.78l0,0c-0.42-0.16-1.02,0.36-1.35,1.18L75.46,89.93z"/>
	<path class="st101" d="M74.31,86.44c-0.36,0.9-0.31,1.76,0.11,1.93l0,0c0.42,0.16,1.05-0.43,1.4-1.32l15.58-39.13
		c0.36-0.9,0.31-1.76-0.11-1.92l0,0c-0.42-0.16-1.04,0.42-1.4,1.32L74.31,86.44z"/>
	<path class="st101" d="M69.72,91.74c-0.38,0.96-0.36,1.88,0.06,2.05l0,0c0.42,0.16,1.07-0.48,1.45-1.44l16.75-42.06
		c0.38-0.97,0.35-1.88-0.06-2.04l0,0c-0.42-0.16-1.07,0.48-1.45,1.44L69.72,91.74z"/>
	<path class="st101" d="M68.84,87.64c-0.41,1.02-0.4,1.98,0.02,2.15l0,0c0.42,0.16,1.09-0.53,1.49-1.54l17.72-44.49
		c0.41-1.02,0.39-1.98-0.02-2.15l0,0c-0.42-0.16-1.08,0.52-1.49,1.54L68.84,87.64z"/>
	<path class="st101" d="M64.35,92.75c-0.43,1.09-0.45,2.11-0.03,2.28l0,0c0.42,0.16,1.11-0.58,1.54-1.67l18.91-47.47
		c0.43-1.09,0.44-2.1,0.02-2.27l0,0c-0.42-0.16-1.11,0.58-1.54,1.66L64.35,92.75z"/>
	<path class="st101" d="M62.01,92.51c-0.47,1.18-0.51,2.27-0.09,2.44l0,0c0.42,0.16,1.14-0.65,1.6-1.83L83.96,41.8
		c0.47-1.18,0.51-2.26,0.09-2.43l0,0c-0.42-0.16-1.13,0.65-1.6,1.82L62.01,92.51z"/>
	<path class="st101" d="M59.53,92.08c-0.45,1.12-0.47,2.17-0.05,2.33l0,0c0.42,0.16,1.12-0.61,1.56-1.72L80.5,43.82
		c0.45-1.12,0.47-2.16,0.05-2.33l0,0c-0.42-0.16-1.12,0.6-1.56,1.72L59.53,92.08z"/>
	<path class="st101" d="M56.95,91.61c-0.49,1.24-0.56,2.39-0.14,2.55l0,0c0.42,0.16,1.16-0.71,1.65-1.94l21.58-54.18
		c0.49-1.24,0.55-2.38,0.14-2.55l0,0c-0.42-0.16-1.16,0.7-1.65,1.94L56.95,91.61z"/>
	<path class="st101" d="M55.27,88.73c-0.45,1.14-0.48,2.19-0.06,2.36l0,0c0.42,0.16,1.12-0.62,1.57-1.75l19.71-49.49
		c0.45-1.14,0.48-2.19,0.06-2.35l0,0c-0.42-0.16-1.12,0.61-1.57,1.75L55.27,88.73z"/>
	<path class="st101" d="M52.1,90.16c-0.49,1.23-0.54,2.36-0.13,2.53l0,0c0.42,0.16,1.15-0.7,1.64-1.92l21.31-53.51
		c0.49-1.23,0.54-2.35,0.12-2.52l0,0c-0.42-0.16-1.15,0.69-1.64,1.91L52.1,90.16z"/>
	<path class="st101" d="M50.57,87.55c-0.45,1.14-0.48,2.21-0.07,2.38l0,0c0.42,0.16,1.13-0.63,1.58-1.76l19.85-49.85
		c0.45-1.14,0.48-2.2,0.06-2.37l0,0c-0.42-0.16-1.12,0.62-1.58,1.76L50.57,87.55z"/>
	<path class="st39" d="M252.04,118.42c0,0-0.5,2.25,2.25,3.25l1.88,1.75l-7.88,5.13c0,0-0.88,3.88,4.88,4.25c0,0,5.38,2.63,8,1.5
		l6.75,1.5l3.75-11.63C271.67,124.17,252.67,116.79,252.04,118.42"/>
	<path class="st69" d="M247.25,126.33c0,0-0.02-3.54,4.17-3.35l1.31,1.69l0.25,1.94c0,0-0.38,1.88-0.56,1.81
		S247.25,126.33,247.25,126.33"/>
	<path class="st68" d="M262.73,132.48l7.63,2c0,0,0.63-6.13,3.75-5.75l-4.94-1.25c0,0-4.88-0.56-4.94-0.38s-2.88,4.19-2.88,4.19
		L262.73,132.48"/>
	<path class="st3" d="M247.25,126.67c0,0,1-2.42,2.75,0l1.92-0.17l0.25-0.92l-1.08-1c0,0-0.33-2.17,0.92-2.17l3,0.83l11,4.17
		l0.08,0.67c0,0,2.92,1.5,1.08,3.25c0,0-2.67,0.83-3.83,0.08l-2.5-0.25l-7.08-1.67l-4.33-2L247.25,126.67z"/>
	<path class="st11" d="M254.25,126.08c-0.14,0.21-1.08,0.67,0.42,1.25l8.92,2.83c0,0,1.58,1.08,2-0.25c0,0,0.08-0.58-1-1
		C264.58,128.92,254.75,125.33,254.25,126.08z"/>
	<path class="st44" d="M254.83,123.83c0,0-0.17-0.67,0.67-0.67l2.17,0.25l3.67,1.17l7.5,2.5c0,0,1.33,1.17-0.42,0.83
		c0,0-1.67,0.08-2.42-0.5C266,127.42,254.33,124.58,254.83,123.83z"/>
	<path class="st75" d="M252.92,125.42c0,0-1.42-0.92,0.42-0.83l2.75,0.67l8.58,2.42c0,0,1.42,0.92,0.5,1.5c0,0-2-0.25-3.67-1.17
		C261.5,128,252.92,125.92,252.92,125.42z"/>
	<path class="st93" d="M246.67,127.75c0,0-0.08-1.17,0.58-1.42l2.75,1.17l-0.83,1.17L246.67,127.75z"/>
	<path class="st54" d="M249.54,127.17l5.75,2h2.38l1.63,1.13l3.38,1.13c0,0,1.13,1.38-1.13,1.5c0,0-3.13,0.75-5.13-0.88l-1.63-0.63
		c0,0-4.75-0.25-5.25-1.38l-0.38-1.38L249.54,127.17"/>
	<path class="st45" d="M295.67,128.17c0,0,0.94-1.25-1.75-2.31l-0.13,2.88L295.67,128.17z"/>
	<path class="st8" d="M274.92,125.17l2.63,0.63l1.13-1.25l13.38,3.63c0,0,2,0.88,2.5,0.13c0,0,1.38-1.75-1.5-2.5l-13-4.38l-0.5-2.25
		l-6.88-1.88l-18.25-3.63l-3.13,0.75l-0.13,1.88l3.75,2.13l10.88,3.63L274.92,125.17z"/>
	<path class="st20" d="M254.79,112.29c0,0-0.13-0.75,0.75-0.5l2.25,0.88l14.25,4.13l4.13,1.75c0,0-1.5,5.75-1.25,6.63l-8.5-2.88
		l-0.13-1.25l1.38,0.63c0,0,2.5,1.5,3.25,1c0,0,1.25-1.5-1.25-2.13l-14.5-4.25l0.13-2.5l-0.88-0.13L254.79,112.29z"/>
	<path class="st76" d="M252.92,118.92l-0.88-0.5l-0.13-0.75l-2.13-1.25l1.5-4.38c0,0,2.63,1.13,3.5,0.25l0.5,1.5l-3.5,0.88
		c0,0-0.25,1.13,0.38,1.63l0.75,0.5C252.92,116.79,252.42,118.04,252.92,118.92z"/>
	<path class="st54" d="M252.92,116.79l13.38,4.25c0,0,1,1.75-0.75,2.25c0,0-4.25,0.38-6-1.88l-1.5-0.5c0,0-4.63,0.5-5.13-2
		C252.92,118.92,252.04,117.42,252.92,116.79z"/>
	<path class="st44" d="M257.04,113.04c0,0,0.25-1.75,2.38-1.13c0,0,4,0.88,5.13,2.13c0,0,5.88-0.13,7.25,2.25
		c0,0-0.38,1.25-2.13,1.13l-5.38-1.75L257.04,113.04z"/>
	<path class="st33" d="M255.79,114.42l13.13,4.25c0,0,1.63,0.63,0.75,1.88l0.63-0.13c0,0,0.5-2.38-1.13-2.5l-12.88-4.38
		C256.29,113.54,255.67,113.04,255.79,114.42z"/>
	<path class="st36" d="M265.92,122.04l8.38,2.88l2.75,1.25c0,0,1.13,0.25,1.75-1.13l0.38-0.5l13.25,4.13c0,0,2.75,0.88,3.25-0.5
		c0,0-3,0.63-4.63-0.38l-12-4c0,0-0.88,1.88-2.13,1.75l-2.38-1.25l-8.63-3V122.04z"/>
</g>
<g id="afbeelding_1_" class="st94">
	
		<image style="display:inline;overflow:visible;" width="600" height="600" xlink:href="../../../F1SIVISIBW25JS5.MEDIUM.jpg"  transform="matrix(0.24 0 0 0.24 83.3335 16.999)">
	</image>
</g>
<g id="temperatuursensor" class="st94">
	<path class="st38" d="M163.13,56.94c0,0,1.19,3.38,2,4.31c0,0,4.88,5.63,5.88,6.38c0,0,6.06,4.31,7.44,4.81l4.25,1.75
		c0,0,3.31,1.94,6.94,0.44c0,0,1.56-1.31,1.75-2.44L191,71l-4.5-2.31l-7.94-4l-7.69-3.81l-6.63-3.81L163.13,56.94"/>
	<polygon class="st22" points="163.88,51.81 163.56,56.5 190.81,70.88 190.13,66.31 189,64.31 	"/>
	<path class="st82" d="M167.94,57.44c0,0-3.38,5-5.13,6.13c0,0-1.94,2.13-2.06,2.81c0,0-1.56,0.94-1.69,2.63l-10.15,14.58
		l-24.42,33.75l-15.08,21.08c0,0-0.33,0.83,0.5,1.33c0,0,1.67,1.42,2.5,0.42l20.5-28.08l8.33-12l11.5-15.75
		c0,0,9.83-12.58,10.42-13.17c0,0,3.17-3.33,3.17-4.17l3.92-5.42c0,0,0.92,0.25,0.63-0.71s-0.29-0.96-0.29-0.96l0.42-0.67
		L167.94,57.44"/>
	<polygon class="st1" points="111.5,139 131.92,111.17 147.42,89.75 154.08,80.92 161.08,71.33 160.92,72.33 149.17,88.42 
		133.33,110.58 121.58,126.67 112.08,140.33 	"/>
	<polygon class="st90" points="163.94,64 166.63,61.56 168.06,59.44 169.13,59.75 169.25,60.38 169.69,60.81 169.5,60 170.38,59.56 
		170.94,59.63 170.69,59.13 170.13,58.94 169.38,59.44 167.88,59.06 	"/>
	<polygon class="st9" points="163.19,69.13 163.44,68.06 164.56,66.94 165.06,65.94 163.25,64.75 160.56,67.88 159,70.94 
		159.81,71.88 158.75,71.19 151.46,81.21 146.29,88.04 139.13,98.04 136.13,102 136.67,102.17 136.42,102.79 134.08,105.04 
		134.58,105.38 134.42,105.88 133.88,105.83 128.79,112.25 130.33,112.33 132.08,110 132.5,110.17 130.54,113 128,112.83 
		133.79,104.63 141.63,93.75 149.13,83.58 157.54,72.13 158.83,70.38 160.33,67.63 162.21,65.13 162.75,64 165.63,65.92 
		164.33,67.88 163.92,68.21 163.5,69.13 	"/>
	<polygon class="st43" points="162.21,67.5 162.83,67.88 161.38,69.71 162.38,69.63 161.54,70.54 161.67,70.08 160.75,69.83 	"/>
	<path class="st102" d="M128,112.83l-17.42,24.92l0.92,0.83l0.58,1.75c0,0-2.5,0-2.75-1.58c0,0,2,1.33,2.42,1.25
		c0,0-1.42-1.5-2-2.17L128,112.83z"/>
	<path class="st82" d="M175.56,61.69l-5.06,6.56L164.13,77l-21.63,30.63L117,142.75l3.5,2.13l14.63-20.25l12.5-17.75l15.5-21.63
		l6.25-8c0,0,1.5-2.13,2.25-2.75l3.25-4.69l0.75-1.25l3-4.13l-0.69-1.56C177.94,62.88,176.63,61.25,175.56,61.69"/>
	<path class="st82" d="M124.58,146.25c0,0-0.25,1.17,1.67,1.83c0,0,1.33,1.17,2.42-0.08l20.17-28.08l16.83-23.42l8.58-11.5
		l2.42-3.17c0,0,5.83-5.5,5.92-7.92l3.85-4.79l-0.02-2.62l-1.83-1.17l-1.15,0.48l-4.85,6.52c0,0-2,1.17-2.25,2.58c0,0-1.42,1-2,2.83
		l-3.08,4.83l-12.33,17.17l-17.58,23.67L124.58,146.25z"/>
	<polygon class="st19" points="120.25,143 135.08,122.67 145.42,108.42 154.75,95.17 171,73.5 169.58,74.5 150.58,99.5 122,139.67 
		119.25,143.42 	"/>
	<polygon class="st57" points="117.67,142.83 140.33,110.83 116.83,143.08 117.33,143.33 	"/>
	<polygon class="st24" points="176.42,65.58 176.58,64.33 177.33,64.67 	"/>
	<path class="st24" d="M170,73.83l-9.08,12.42l-7.08,9.42l-9.92,13.67l-12.25,17.17l-11.83,16.92l0.5,0.42l0.75,0.42l-0.67,0.92
		c0,0-3.5-1.67-3.58-2.08l2.08-0.08l8.75-11.67l4.83-7l4.17-6c0,0,1.54-1.88,2.04-2.54l2.5-3.21l0.88-1.67c0,0,0.33-1.58,0.92-1.92
		c0,0,0-1.08,1-0.67l0.33-0.08l13.08-17.92l0.75-1.25c0,0,0.17-0.75,0.58-0.83c0,0,0-0.92,0.67-0.83l2.75-4c0,0,1.25-2,1.75-2
		L170,73.83z"/>
	<polygon class="st57" points="159.42,84.17 168.33,72.17 167.75,72.08 	"/>
	<polygon class="st25" points="127.25,147.42 125.92,146.42 126.08,145.83 127.42,146.58 137.33,132.58 143.33,124.75 
		152.33,112.33 160.42,100.75 166.67,92.08 173.25,83.25 172.75,82.33 173.5,82.5 174.58,81.5 177.83,78 169.17,89.75 
		152.75,112.42 142.33,126.75 	"/>
	<polygon class="st48" points="124.75,146.17 125.17,146.75 126.08,145.83 144.33,119.75 	"/>
	<polygon class="st23" points="181,73.33 181.67,73.33 185.25,68.33 186.44,68.13 186,67.5 184.92,67.92 184.33,67.42 183.83,66.33 
		182.83,67.33 184,68.33 	"/>
	<polygon class="st67" points="178.25,72.42 178.67,72.67 183.83,66 183.44,65.81 	"/>
	<path class="st13" d="M128.33,145.92l16.33-21.58l12.5-16.75l8.92-12.5L174,84l1.33-1.67c0,0,2.58-4.33,3-4.5l-4.42,5l-18.58,25.83
		L128.33,145.92z"/>
	<polygon class="st66" points="176.06,61.75 177.94,62.88 178.63,64.44 179.13,64.38 179.06,63.25 181.44,61.19 180.13,60.25 
		178.25,62.13 177.63,61.63 177.88,60.94 177.63,60.75 178,60.25 177.63,60.25 	"/>
	<polygon class="st73" points="170.25,56.44 170,57.25 170.88,57.81 172.44,56.44 173.69,56.94 171.38,60.06 170.69,59.13 
		168.44,57.75 168.69,56.81 	"/>
	<polygon class="st5" points="167.94,57.44 170.06,55.06 170.88,55.63 169.44,57.38 168.88,57.19 168.44,57.75 	"/>
	<polygon class="st5" points="176.06,61.75 177.63,60.25 177.13,60 175.56,61.69 	"/>
	<polygon class="st5" points="183.44,65.81 184.13,66.06 185.19,64.31 184.63,64.13 	"/>
	<polygon class="st12" points="168.44,57.75 170.69,59.13 170.69,59.5 170.38,59.56 170.44,60.75 170.88,60.88 174.75,62.81 
		174.88,62.38 171.38,60.63 171.5,59.38 	"/>
	<path class="st12" d="M163.13,56.94l1.19,0.38l0.19,0.88l0.44-0.06l0.63-0.19l1.31,0.88l0.5-0.88l-3.88-1.63
		C163.5,56.31,163.06,56.31,163.13,56.94z"/>
	<polygon class="st12" points="178.31,64.81 178.63,64.44 182.88,66.56 182.56,67 	"/>
	<polygon class="st96" points="184.13,66.06 186.19,67.06 186.44,68.13 189.25,65.44 185.94,63.19 185.19,64.31 	"/>
	<polygon class="st12" points="186.69,68 186.88,68.88 190.75,70.63 190.81,71.31 186.44,69.13 186.19,67.06 	"/>
	<path class="st100" d="M190.75,70.88l0.5,1.63l3.88-4.94l13.63-18.44c0,0,1-2.31,1-2.75s0,0,0,0L190.75,70.88"/>
	<path class="st58" d="M190.17,66.33l0.58,4.54c0,0,2.38-1.5,2.88-2.13l16.13-22.38l-1.33-4.54L190.17,66.33z"/>
	<polygon class="st42" points="187,63.83 190.17,66.33 208.42,41.83 208.17,41.5 	"/>
	<polygon class="st78" points="163.83,51.83 181.83,28 208.17,41.5 190,65.5 	"/>
</g>
<g id="afbeelding_2_" class="st94">
	
		<image style="display:inline;overflow:visible;" width="1695" height="864" xlink:href="../../../LCD-Display-with-Potentiometer_bb.png"  transform="matrix(0.2667 0 0 0.2667 -171.3345 26.334)">
	</image>
</g>
<g id="lcd_scherm" class="st94">
	<path class="st80" d="M46.33,36.33v101.92h226.08V36.33H46.33z M52.63,134.63c-1.59,0-2.88-1.29-2.88-2.88s1.29-2.88,2.88-2.88
		s2.88,1.29,2.88,2.88S54.21,134.63,52.63,134.63z M52.75,45.88c-1.59,0-2.88-1.29-2.88-2.88s1.29-2.88,2.88-2.88
		s2.88,1.29,2.88,2.88S54.34,45.88,52.75,45.88z M265.88,40.13c1.59,0,2.88,1.29,2.88,2.88s-1.29,2.88-2.88,2.88S263,44.59,263,43
		S264.29,40.13,265.88,40.13z M266,134.88c-1.59,0-2.88-1.29-2.88-2.88s1.29-2.88,2.88-2.88s2.88,1.29,2.88,2.88
		S267.59,134.88,266,134.88z"/>
	<rect x="73" y="48.5" class="st55" width="16.33" height="4.67"/>
	<rect x="151.33" y="48.5" class="st55" width="16.33" height="4.67"/>
	<rect x="229.33" y="48.5" class="st55" width="16.33" height="4.67"/>
	<rect x="73" y="121.33" class="st55" width="16.33" height="4.67"/>
	<rect x="151" y="121.33" class="st55" width="16.33" height="4.67"/>
	<rect x="229.33" y="121.33" class="st55" width="16.33" height="4.67"/>
	<path class="st103" d="M52.88,38C50.18,38,48,40.18,48,42.88s2.18,4.88,4.88,4.88s4.88-2.18,4.88-4.88S55.57,38,52.88,38z
		 M52.75,45.88c-1.59,0-2.88-1.29-2.88-2.88s1.29-2.88,2.88-2.88s2.88,1.29,2.88,2.88S54.34,45.88,52.75,45.88z"/>
	<path class="st103" d="M266,38c-2.69,0-4.88,2.18-4.88,4.88s2.18,4.88,4.88,4.88s4.88-2.18,4.88-4.88S268.69,38,266,38z
		 M265.88,45.88c-1.59,0-2.88-1.29-2.88-2.88s1.29-2.88,2.88-2.88s2.88,1.29,2.88,2.88S267.46,45.88,265.88,45.88z"/>
	<path class="st103" d="M266.13,127c-2.69,0-4.88,2.18-4.88,4.88s2.18,4.88,4.88,4.88s4.88-2.18,4.88-4.88S268.82,127,266.13,127z
		 M266,134.88c-1.59,0-2.88-1.29-2.88-2.88s1.29-2.88,2.88-2.88s2.88,1.29,2.88,2.88S267.59,134.88,266,134.88z"/>
	<path class="st103" d="M52.75,126.75c-2.69,0-4.88,2.18-4.88,4.88s2.18,4.88,4.88,4.88s4.88-2.18,4.88-4.88
		S55.44,126.75,52.75,126.75z M52.63,134.63c-1.59,0-2.88-1.29-2.88-2.88s1.29-2.88,2.88-2.88s2.88,1.29,2.88,2.88
		S54.21,134.63,52.63,134.63z"/>
	<path class="st72" d="M56.83,100.5L56.67,75c0,0,0.5-1.67-1.33-2V52.33h0.83l2-1.5v-1L261,49.5l-0.42,1.08l2.17,2.08l0.67-0.25
		l0.42,20.75c0,0-1.46-0.17-1.71,1.33L262,100c0,0,0.38,1.75,1.63,1.38l0.13,20.88h-0.88l-2.25,2.25l0.5,0.63H58l0.25-0.75l-1.75-2
		h-1.13v-20.75C55.38,101.63,56.29,101.38,56.83,100.5z"/>
	<path class="st17" d="M254.83,57.17c1.58-0.33,1.42-1.83,1.42-1.83c0.08-1.5-1.5-1.58-1.5-1.58h-190
		c-1.75-0.17-2.08,0.92-2.08,0.92c-0.42,1.83,1,2.5,1,2.5H254.83z"/>
	<path class="st97" d="M63.75,57.17c0,0-0.58-0.58-0.25-1.08c0,0-0.17-0.58,1.08-0.67h190.33c0,0,0.83,0.33,0.67,1
		c0,0-0.17,0.67-1.08,0.75H63.75z"/>
	<path class="st17" d="M255,120.5c1.58-0.33,1.42-1.83,1.42-1.83c0.08-1.5-1.5-1.58-1.5-1.58h-190c-1.75-0.17-2.08,0.92-2.08,0.92
		c-0.42,1.83,1,2.5,1,2.5H255z"/>
	<path class="st97" d="M63.92,120.5c0,0-0.58-0.58-0.25-1.08c0,0-0.17-0.58,1.08-0.67h190.33c0,0,0.83,0.33,0.67,1
		c0,0-0.17,0.67-1.08,0.75H63.92z"/>
	<polygon class="st88" points="65.13,67 65.25,108.63 67.5,111 250.88,111.63 254,109.25 254,107.75 254.13,66.25 253.13,64.63 
		250.88,63.63 67.88,63.75 	"/>
	<path class="st99" d="M66.38,68.63c0,0-0.13-3.75,3.5-4.38l181.5-0.13c0,0,3,0.13,2.38,3.75v40.5c0,0-0.13,2.5-4.5,2.75
		l-181.13-0.25c0,0-3.38-0.5-3.38-3.75h-0.88c0,0,0.13,4.25,4.13,4.63l182.88-0.13c0,0,3.63-0.38,3.75-3.88V66.5
		c0,0-0.38-3.25-4.25-3.5L67.5,63.13c0,0-3,0.63-3.38,3.38L66.38,68.63z"/>
	<path class="st99" d="M64.13,66.5l-0.25,40.63l2.25,3.5l2,0.25c0,0-2-1.88-1.88-3.63l0.13-38.63L64.13,66.5z"/>
	<rect x="74.08" y="70.5" class="st77" width="9.75" height="16.5"/>
	<rect x="74" y="87.67" class="st77" width="9.75" height="16.5"/>
	<rect x="84.83" y="70.42" class="st77" width="9.75" height="16.5"/>
	<rect x="95.42" y="70.5" class="st77" width="9.75" height="16.5"/>
	<rect x="106.17" y="70.5" class="st77" width="9.75" height="16.5"/>
	<rect x="84.67" y="87.58" class="st77" width="9.75" height="16.5"/>
	<rect x="95.42" y="87.5" class="st77" width="9.75" height="16.5"/>
	<rect x="106.17" y="87.5" class="st77" width="9.75" height="16.5"/>
	<rect x="116.92" y="70.5" class="st77" width="9.75" height="16.5"/>
	<rect x="116.92" y="87.58" class="st77" width="9.75" height="16.5"/>
	<rect x="127.67" y="70.58" class="st77" width="9.75" height="16.5"/>
	<rect x="127.58" y="87.58" class="st77" width="9.75" height="16.5"/>
	<rect x="138.33" y="87.59" class="st77" width="9.75" height="16.5"/>
	<rect x="138.42" y="70.59" class="st77" width="9.75" height="16.5"/>
	<rect x="149" y="70.59" class="st77" width="9.75" height="16.5"/>
	<rect x="149.08" y="87.59" class="st77" width="9.75" height="16.5"/>
	<rect x="159.75" y="70.5" class="st77" width="9.75" height="16.5"/>
	<rect x="159.75" y="87.67" class="st77" width="9.75" height="16.5"/>
	<rect x="170.58" y="70.5" class="st77" width="9.75" height="16.5"/>
	<rect x="170.42" y="87.67" class="st77" width="9.75" height="16.5"/>
	<rect x="181.25" y="70.5" class="st77" width="9.75" height="16.5"/>
	<rect x="181.33" y="87.67" class="st77" width="9.75" height="16.5"/>
	<rect x="191.92" y="70.5" class="st77" width="9.75" height="16.5"/>
	<rect x="191.92" y="87.75" class="st77" width="9.75" height="16.5"/>
	<rect x="202.75" y="70.42" class="st77" width="9.75" height="16.5"/>
	<rect x="202.75" y="87.59" class="st77" width="9.75" height="16.5"/>
	<rect x="213.34" y="70.42" class="st77" width="9.75" height="16.5"/>
	<rect x="224.09" y="70.5" class="st77" width="9.75" height="16.5"/>
	<rect x="234.92" y="70.5" class="st77" width="9.75" height="16.5"/>
	<rect x="213.5" y="87.59" class="st77" width="9.75" height="16.5"/>
	<rect x="224.25" y="87.59" class="st77" width="9.75" height="16.5"/>
	<rect x="234.92" y="87.5" class="st77" width="9.75" height="16.5"/>
	<path class="st51" d="M63.13,36.38l0.13,5.38c0,0,0.25,2,2.38,1.75c0,0,2.13,0,2.25-2.13l-0.13-5H63.13z"/>
	<circle class="st56" cx="65.5" cy="40.38" r="1.13"/>
	<path class="st51" d="M70.25,36.38l0.13,5.38c0,0,0.25,2,2.38,1.75c0,0,2.13,0,2.25-2.13l-0.13-5H70.25z"/>
	<circle class="st56" cx="72.63" cy="40.38" r="1.13"/>
	<path class="st51" d="M77.5,36.38l0.13,5.38c0,0,0.25,2,2.38,1.75c0,0,2.13,0,2.25-2.13l-0.13-5H77.5z"/>
	<circle class="st56" cx="79.88" cy="40.38" r="1.13"/>
	<path class="st51" d="M84.63,36.38l0.13,5.38c0,0,0.25,2,2.38,1.75c0,0,2.13,0,2.25-2.13l-0.13-5H84.63z"/>
	<circle class="st56" cx="87" cy="40.38" r="1.13"/>
	<path class="st51" d="M91.75,36.38l0.13,5.38c0,0,0.25,2,2.38,1.75c0,0,2.13,0,2.25-2.13l-0.13-5H91.75z"/>
	<circle class="st56" cx="94.13" cy="40.38" r="1.13"/>
	<path class="st51" d="M98.88,36.38L99,41.75c0,0,0.25,2,2.38,1.75c0,0,2.13,0,2.25-2.13l-0.13-5H98.88z"/>
	<circle class="st56" cx="101.25" cy="40.38" r="1.13"/>
	<path class="st51" d="M106.13,36.38l0.13,5.38c0,0,0.25,2,2.38,1.75c0,0,2.13,0,2.25-2.13l-0.13-5H106.13z"/>
	<circle class="st56" cx="108.5" cy="40.38" r="1.13"/>
	<path class="st51" d="M113.5,36.38l0.13,5.38c0,0,0.25,2,2.38,1.75c0,0,2.13,0,2.25-2.13l-0.13-5H113.5z"/>
	<circle class="st56" cx="115.88" cy="40.38" r="1.13"/>
	<path class="st51" d="M120.63,36.38l0.13,5.38c0,0,0.25,2,2.38,1.75c0,0,2.13,0,2.25-2.13l-0.13-5H120.63z"/>
	<circle class="st56" cx="123" cy="40.38" r="1.13"/>
	<path class="st51" d="M127.63,36.38l0.13,5.38c0,0,0.25,2,2.38,1.75c0,0,2.13,0,2.25-2.13l-0.13-5H127.63z"/>
	<circle class="st56" cx="130" cy="40.38" r="1.13"/>
	<path class="st51" d="M134.75,36.38l0.13,5.38c0,0,0.25,2,2.38,1.75c0,0,2.13,0,2.25-2.13l-0.13-5H134.75z"/>
	<circle class="st56" cx="137.13" cy="40.38" r="1.13"/>
	<path class="st51" d="M142.13,36.38l0.13,5.38c0,0,0.25,2,2.38,1.75c0,0,2.13,0,2.25-2.13l-0.13-5H142.13z"/>
	<circle class="st56" cx="144.5" cy="40.38" r="1.13"/>
	<path class="st51" d="M149.38,36.38l0.13,5.38c0,0,0.25,2,2.38,1.75c0,0,2.13,0,2.25-2.13l-0.13-5H149.38z"/>
	<circle class="st56" cx="151.75" cy="40.38" r="1.13"/>
	<path class="st51" d="M156.5,36.38l0.13,5.38c0,0,0.25,2,2.38,1.75c0,0,2.13,0,2.25-2.13l-0.13-5H156.5z"/>
	<circle class="st56" cx="158.88" cy="40.38" r="1.13"/>
	<path class="st51" d="M163.88,36.38l0.13,5.38c0,0,0.25,2,2.38,1.75c0,0,2.13,0,2.25-2.13l-0.13-5H163.88z"/>
	<circle class="st56" cx="166.25" cy="40.38" r="1.13"/>
	<path class="st51" d="M171,36.38l0.13,5.38c0,0,0.25,2,2.38,1.75c0,0,2.13,0,2.25-2.13l-0.13-5H171z"/>
	<circle class="st56" cx="173.38" cy="40.38" r="1.13"/>
</g>
<g id="afbeelding_3_" class="st94">
	
		<image style="display:inline;overflow:visible;" width="600" height="600" xlink:href="../../../12664-02a.jpg"  transform="matrix(0.24 0 0 0.24 84.5 17)">
	</image>
</g>
<g id="NeoPixel_ring" class="st94">
	<path class="st78" d="M159.81,18.9c-37.19,0-67.33,30.15-67.33,67.33c0,37.19,30.15,67.33,67.33,67.33s67.33-30.14,67.33-67.33
		C227.15,49.05,197,18.9,159.81,18.9z M137.65,24.82c0.97,0,1.75,0.78,1.75,1.75s-0.78,1.75-1.75,1.75s-1.75-0.78-1.75-1.75
		S136.68,24.82,137.65,24.82z M116.36,37.94c0.97,0,1.75,0.78,1.75,1.75s-0.78,1.75-1.75,1.75s-1.75-0.78-1.75-1.75
		S115.39,37.94,116.36,37.94z M112.77,131.69c-0.97,0-1.75-0.78-1.75-1.75s0.78-1.75,1.75-1.75s1.75,0.78,1.75,1.75
		S113.74,131.69,112.77,131.69z M132.98,146.32c-0.97,0-1.75-0.78-1.75-1.75s0.78-1.75,1.75-1.75s1.75,0.78,1.75,1.75
		S133.95,146.32,132.98,146.32z M159.48,133.57c-26.14,0-47.33-21.19-47.33-47.33s21.19-47.33,47.33-47.33s47.33,21.19,47.33,47.33
		S185.62,133.57,159.48,133.57z M206.4,44.69c-0.97,0-1.75-0.78-1.75-1.75s0.78-1.75,1.75-1.75s1.75,0.78,1.75,1.75
		S207.36,44.69,206.4,44.69z M223.52,90.44c-0.97,0-1.75-0.78-1.75-1.75s0.78-1.75,1.75-1.75s1.75,0.78,1.75,1.75
		S224.49,90.44,223.52,90.44z"/>
	<polygon class="st71" points="143.9,37.24 144.31,38.4 159.31,35.99 159.17,35.44 157.65,35.4 	"/>
	<path class="st40" d="M141.81,22.9l14.67-2.5c0,0,1.25,0.17,0.58,1c0,0-0.25,0.25,0.25,0.5l0.33,2.58l-0.25,0.5l0.77,5.83
		l0.25,0.63h0.38l0.25,3.94l-14.81,2.19l-0.75-0.92l-1.17-9.58l-0.58-0.17L141.81,22.9z"/>
	<polyline class="st89" points="146.17,28.51 146.17,31.26 150.23,31.13 149.36,28.19 146.17,28.51 	"/>
	<path class="st15" d="M146.29,28.76l3.31-0.25l0.38,2.69l-3.62,1.12c0,0,1.12,1.44,2,1.69c0,0,5,2.25,7-3.13l-1.19-6.06
		c0,0-6.25-3.88-9.13,2.13L146.29,28.76"/>
	<path class="st18" d="M150.26,22.82c-3.33,0-6.03,2.63-6.03,5.87c0,3.25,2.7,5.88,6.03,5.88c3.33,0,6.03-2.63,6.03-5.88
		C156.29,25.45,153.59,22.82,150.26,22.82z M153.92,25.59c-0.21,0.09-0.91,0.46-0.81,1.47l-3,0.26l-0.49-3.19
		c0.21-0.02,0.41-0.06,0.62-0.06C151.68,24.07,152.99,24.66,153.92,25.59z M148.83,24.28l0.99,6.56l-3.37,0.45
		c0.02-1.2-0.29-2.78-0.29-2.78c0.1-0.79-0.46-1.14-0.7-1.26C146.05,25.81,147.29,24.71,148.83,24.28z M150.24,34.07
		c-1.56,0-2.94-0.69-3.88-1.76l3.63-0.4l0.33,2.15C150.29,34.06,150.26,34.07,150.24,34.07z M151.3,33.96l-0.9-5.64l2.88-0.42
		l0.52,2.55c0,0,0.12,0.9,1.19,0.53C154.34,32.48,152.97,33.62,151.3,33.96z"/>
	<g class="st78">
		<polyline class="st30" points="181.49,25.79 182.86,25.99 181.94,29.26 180.13,28.73 181.49,25.79 		"/>
		<polyline class="st16" points="180.13,29.4 180.64,29.47 179.46,34.66 178.91,34.37 180.13,29.4 		"/>
		<polyline class="st85" points="178,38.93 179.7,39.22 180.44,35.74 178.9,35.04 178,38.93 		"/>
		<polygon class="st7" points="166.01,22.3 165.66,22.01 164.83,21.88 164.15,25.05 165.63,25.72 		"/>
		<polygon class="st7" points="164.2,31.21 163.28,31.64 162.63,31.58 161.91,35 163.46,35.36 		"/>
		<polygon class="st81" points="163.27,34.92 163.22,36.16 178.02,39.59 178.09,39.03 176.7,38.42 		"/>
		<path class="st52" d="M166.75,20.87l14.52,3.22c0,0,1.09,0.63,0.16,1.15c0,0-0.33,0.14,0.04,0.56l-0.67,2.52l-0.42,0.37
			l-1.49,5.69l0,0.67l0.35,0.14L178,38.93l-14.54-3.57l-0.35-1.13l2.54-9.31l-0.48-0.37L166.75,20.87z"/>
		<polyline class="st98" points="168.67,27.7 167.63,30.25 171.44,31.66 171.74,28.61 168.67,27.7 		"/>
		<path class="st26" d="M168.69,27.98l3.16,1.02l-0.67,2.63l-3.77-0.33c0,0,0.49,1.76,1.21,2.32c0,0,3.78,3.97,7.66-0.25l1.19-6.06
			c0,0-4.32-5.95-9.25-1.48L168.69,27.98"/>
		<path class="st27" d="M174.61,23.98c-3.08-1.26-6.58,0.16-7.8,3.16c-1.23,3,0.28,6.46,3.37,7.72s6.58-0.16,7.8-3.16
			C179.2,28.69,177.69,25.24,174.61,23.98z M176.95,27.93c-0.23,0-1.02,0.08-1.31,1.05l-2.88-0.89l0.75-3.14
			c0.2,0.05,0.4,0.1,0.6,0.18C175.45,25.67,176.44,26.71,176.95,27.93z M172.73,24.79l-1.56,6.45l-3.29-0.86
			c0.47-1.1,0.78-2.69,0.78-2.69c0.39-0.69,0.01-1.23-0.17-1.43C169.58,25.15,171.15,24.61,172.73,24.79z M170.34,34.39
			c-1.44-0.59-2.46-1.75-2.93-3.09l3.51,1l-0.51,2.12C170.39,34.4,170.36,34.4,170.34,34.39z M171.36,34.68l1.3-5.56l2.82,0.7
			L175,32.37c0,0-0.23,0.88,0.9,0.94C174.74,34.47,173.04,35,171.36,34.68z"/>
	</g>
	<g class="st78">
		<polyline class="st30" points="203.16,39.01 204.35,39.73 202.24,42.39 200.78,41.2 203.16,39.01 		"/>
		<polyline class="st16" points="200.51,41.82 200.96,42.08 197.88,46.43 197.48,45.94 200.51,41.82 		"/>
		<polyline class="st85" points="194.89,49.8 196.35,50.72 198.37,47.79 197.22,46.56 194.89,49.8 		"/>
		<polygon class="st7" points="190.22,29.84 189.99,29.44 189.28,29 187.44,31.66 188.55,32.85 		"/>
		<polygon class="st7" points="185.12,37.37 184.1,37.42 183.53,37.11 181.55,39.99 182.83,40.92 		"/>
		<polygon class="st81" points="182.83,40.44 182.3,41.57 194.65,50.42 194.93,49.93 193.88,48.83 		"/>
		<path class="st52" d="M191.45,28.8l12.17,8.56c0,0,0.77,1-0.29,1.12c0,0-0.35,0-0.17,0.53l-1.58,2.07l-0.53,0.18l-3.56,4.68
			l-0.26,0.62l0.27,0.26l-2.6,2.97l-12.06-8.88l0.11-1.18l5.92-7.62l-0.3-0.53L191.45,28.8z"/>
		<polyline class="st98" points="190.59,35.85 188.65,37.8 191.63,40.57 193.07,37.87 190.59,35.85 		"/>
		<path class="st26" d="M190.5,36.11l2.53,2.16l-1.63,2.17l-3.36-1.76c0,0-0.22,1.82,0.22,2.61c0,0,1.96,5.12,7.17,2.71l3.43-5.14
			c0,0-1.71-7.15-7.97-4.92L190.5,36.11"/>
		<path class="st27" d="M197.5,34.7c-2.36-2.35-6.13-2.38-8.42-0.08c-2.29,2.3-2.22,6.07,0.14,8.42c2.37,2.35,6.13,2.38,8.42,0.08
			C199.93,40.81,199.87,37.04,197.5,34.7z M198.15,39.24c-0.21-0.09-0.97-0.32-1.61,0.47l-2.31-1.93l1.9-2.61
			c0.16,0.13,0.33,0.24,0.48,0.39C197.63,36.58,198.14,37.92,198.15,39.24z M195.46,34.73l-3.91,5.35l-2.71-2.05
			c0.86-0.84,1.75-2.18,1.75-2.18c0.62-0.49,0.48-1.13,0.39-1.39C192.41,33.85,194.06,33.95,195.46,34.73z M189.56,42.66
			c-1.11-1.1-1.6-2.56-1.51-3.98l2.86,2.27l-1.28,1.76C189.6,42.69,189.58,42.68,189.56,42.66z M190.39,43.33l3.33-4.64l2.34,1.73
			l-1.42,2.17c0,0-0.55,0.72,0.47,1.21C193.59,44.43,191.82,44.27,190.39,43.33z"/>
	</g>
	<g class="st78">
		<polyline class="st30" points="218.06,59.38 218.89,60.5 215.93,62.15 215.03,60.49 218.06,59.38 		"/>
		<polyline class="st16" points="214.55,60.97 214.86,61.38 210.36,64.22 210.17,63.62 214.55,60.97 		"/>
		<polyline class="st85" points="206.3,66.19 207.3,67.6 210.29,65.67 209.69,64.09 206.3,66.19 		"/>
		<polygon class="st7" points="209.6,45.96 209.55,45.51 209.06,44.83 206.34,46.58 206.91,48.11 		"/>
		<polygon class="st7" points="202.02,50.98 201.06,50.63 200.64,50.13 197.72,52.04 198.55,53.38 		"/>
		<polygon class="st81" points="198.73,52.94 197.82,53.78 205.85,66.67 206.29,66.33 205.74,64.91 		"/>
		<path class="st52" d="M211.14,45.47l7.98,12.56c0,0,0.33,1.22-0.7,0.92c0,0-0.33-0.13-0.36,0.42l-2.25,1.31l-0.56-0.04l-5.08,2.97
			l-0.48,0.47l0.15,0.35l-3.53,1.76l-7.75-12.81l0.55-1.05l8.39-4.79l-0.07-0.6L211.14,45.47z"/>
		<polyline class="st98" points="207.66,51.66 205.12,52.72 206.81,56.42 209.18,54.47 207.66,51.66 		"/>
		<path class="st26" d="M207.48,51.87l1.51,2.96l-2.33,1.39l-2.43-2.91c0,0-0.9,1.59-0.79,2.5c0,0-0.14,5.48,5.59,5.25l5.13-3.44
			c0,0,1.15-7.26-5.49-7.59L207.48,51.87"/>
		<path class="st27" d="M214.49,53.23c-1.29-3.07-4.76-4.54-7.75-3.29c-2.99,1.26-4.37,4.76-3.08,7.84
			c1.29,3.07,4.76,4.54,7.75,3.29C214.4,59.81,215.78,56.3,214.49,53.23z M213.34,57.67c-0.16-0.16-0.78-0.66-1.67-0.18l-1.4-2.67
			l2.75-1.68c0.1,0.18,0.21,0.35,0.3,0.55C213.88,55.02,213.85,56.45,213.34,57.67z M212.58,52.48l-5.66,3.45L205.2,53
			c1.11-0.45,2.45-1.34,2.45-1.34c0.76-0.21,0.88-0.86,0.89-1.13C210.1,50.5,211.59,51.23,212.58,52.48z M204.1,57.56
			c-0.6-1.44-0.5-2.97,0.12-4.26L206,56.5l-1.86,1.13C204.13,57.61,204.11,57.59,204.1,57.56z M204.62,58.5l4.85-3.01l1.5,2.49
			l-2.15,1.46c0,0-0.78,0.46-0.03,1.3C207.16,60.73,205.58,59.91,204.62,58.5z"/>
	</g>
	<g class="st78">
		<polyline class="st30" points="223.63,83.7 223.98,85.05 220.61,85.47 220.4,83.6 223.63,83.7 		"/>
		<polyline class="st16" points="219.78,83.86 219.91,84.36 214.67,85.3 214.73,84.68 219.78,83.86 		"/>
		<polyline class="st85" points="210.18,85.62 210.57,87.3 214.07,86.63 214.1,84.94 210.18,85.62 		"/>
		<polygon class="st7" points="220.81,68.09 220.93,67.65 220.73,66.84 217.55,67.45 217.51,69.08 		"/>
		<polygon class="st7" points="211.9,69.91 211.14,69.23 210.94,68.6 207.51,69.28 207.78,70.84 		"/>
		<polygon class="st81" points="208.11,70.5 206.95,70.93 209.58,85.9 210.12,85.74 210.14,84.22 		"/>
		<path class="st52" d="M222.42,68.22l2.7,14.63c0,0-0.15,1.25-0.99,0.6c0,0-0.25-0.25-0.5,0.26l-2.58,0.37l-0.5-0.24l-5.82,0.85
			l-0.62,0.26l0.01,0.38l-3.93,0.31l-2.39-14.78l0.91-0.76l9.57-1.3l0.16-0.58L222.42,68.22z"/>
		<polyline class="st98" points="216.87,72.65 214.12,72.69 214.3,76.75 217.23,75.83 216.87,72.65 		"/>
		<path class="st26" d="M216.62,72.78l0.3,3.31l-2.68,0.41l-1.17-3.61c0,0-1.43,1.14-1.67,2.02c0,0-2.18,5.03,3.22,6.96l6.05-1.27
			c0,0,3.79-6.3-2.25-9.1L216.62,72.78"/>
		<path class="st27" d="M222.62,76.66c-0.05-3.33-2.71-5.99-5.96-5.95c-3.25,0.04-5.84,2.78-5.79,6.11
			c0.05,3.33,2.71,5.99,5.96,5.95C220.07,82.73,222.66,79.99,222.62,76.66z M219.89,80.36c-0.09-0.21-0.47-0.91-1.48-0.79l-0.3-3
			l3.18-0.53c0.03,0.2,0.07,0.41,0.07,0.62C221.39,78.1,220.82,79.41,219.89,80.36z M221.13,75.25l-6.54,1.08l-0.5-3.36
			c1.2,0,2.78-0.33,2.78-0.33c0.79,0.09,1.14-0.47,1.25-0.72C219.57,72.49,220.68,73.72,221.13,75.25z M211.37,76.79
			c-0.02-1.56,0.65-2.95,1.7-3.9l0.45,3.62l-2.15,0.36C211.37,76.84,211.37,76.82,211.37,76.79z M211.49,77.85l5.63-0.98l0.46,2.87
			l-2.54,0.55c0,0-0.9,0.13-0.51,1.2C213.01,80.88,211.86,79.52,211.49,77.85z"/>
	</g>
	<g class="st78">
		<polyline class="st30" points="219.45,108.68 219.19,110.05 215.97,109 216.57,107.21 219.45,108.68 		"/>
		<polyline class="st16" points="215.9,107.18 215.81,107.69 210.67,106.31 210.98,105.77 215.9,107.18 		"/>
		<polyline class="st85" points="206.46,104.68 206.11,106.37 209.55,107.25 210.31,105.74 206.46,104.68 		"/>
		<polygon class="st7" points="223.56,93.36 223.85,93.01 224.02,92.2 220.88,91.39 220.15,92.84 		"/>
		<polygon class="st7" points="214.72,91.2 214.32,90.26 214.41,89.61 211.02,88.76 210.6,90.29 		"/>
		<polygon class="st81" points="211.05,90.12 209.81,90.02 205.8,104.67 206.36,104.76 207.02,103.4 		"/>
		<path class="st52" d="M224.96,94.16l-3.79,14.39c0,0-0.67,1.07-1.15,0.12c0,0-0.12-0.33-0.56,0.02l-2.49-0.77l-0.35-0.43
			l-5.63-1.71l-0.67-0.03l-0.15,0.34l-3.69-1.4l4.14-14.39l1.14-0.3l9.21,2.9l0.39-0.46L224.96,94.16z"/>
		<polyline class="st98" points="218.05,95.8 215.55,94.66 213.98,98.41 217.02,98.83 218.05,95.8 		"/>
		<path class="st26" d="M217.77,95.81l-1.14,3.12l-2.6-0.77l0.48-3.76c0,0-1.78,0.42-2.37,1.11c0,0-4.12,3.62-0.05,7.67l6.01,1.43
			c0,0,6.12-4.09,1.84-9.19L217.77,95.81"/>
		<path class="st27" d="M221.53,101.88c1.38-3.03,0.1-6.58-2.85-7.92c-2.96-1.34-6.47,0.03-7.84,3.06c-1.38,3.03-0.1,6.58,2.85,7.92
			C216.65,106.28,220.16,104.91,221.53,101.88z M217.5,104.06c0.01-0.23-0.04-1.02-1-1.35l1.01-2.84l3.1,0.88
			c-0.06,0.2-0.11,0.4-0.2,0.59C219.81,102.66,218.74,103.6,217.5,104.06z M220.79,99.98l-6.38-1.81l0.99-3.25
			c1.08,0.51,2.65,0.89,2.65,0.89c0.68,0.41,1.23,0.06,1.44-0.11C220.56,96.81,221.04,98.4,220.79,99.98z M211.3,97.2
			c0.65-1.42,1.84-2.39,3.21-2.8l-1.14,3.47l-2.09-0.59C211.29,97.25,211.29,97.23,211.3,97.2z M210.97,98.21l5.51,1.52l-0.81,2.79
			l-2.53-0.58c0,0-0.87-0.26-0.97,0.86C211.05,101.6,210.58,99.88,210.97,98.21z"/>
	</g>
	<g class="st78">
		<polyline class="st30" points="207,130.5 206.3,131.7 203.61,129.63 204.78,128.15 207,130.5 		"/>
		<polyline class="st16" points="204.15,127.9 203.9,128.34 199.51,125.33 199.99,124.92 204.15,127.9 		"/>
		<polyline class="st85" points="196.1,122.38 195.2,123.85 198.15,125.83 199.37,124.66 196.1,122.38 		"/>
		<polygon class="st7" points="216,117.44 216.39,117.21 216.82,116.5 214.14,114.68 212.96,115.81 		"/>
		<polygon class="st7" points="208.4,112.44 208.33,111.43 208.63,110.84 205.73,108.91 204.82,110.21 		"/>
		<polygon class="st81" points="205.29,110.2 204.16,109.69 195.48,122.15 195.97,122.42 197.06,121.36 		"/>
		<path class="st52" d="M217.05,118.66l-8.39,12.29c0,0-0.99,0.78-1.12-0.28c0,0-0.01-0.35-0.53-0.17l-2.09-1.56l-0.18-0.53
			l-4.73-3.5l-0.62-0.25l-0.26,0.27l-3.01-2.56l8.72-12.17l1.18,0.1l7.71,5.82l0.52-0.3L217.05,118.66z"/>
		<polyline class="st98" points="209.99,117.89 208.02,115.98 205.28,118.99 208,120.4 209.99,117.89 		"/>
		<path class="st26" d="M209.73,117.81l-2.12,2.56l-2.2-1.6l1.71-3.38c0,0-1.82-0.2-2.6,0.26c0,0-5.09,2.03-2.62,7.21l5.19,3.36
			c0,0,7.13-1.8,4.81-8.04L209.73,117.81"/>
		<path class="st27" d="M211.24,124.79c2.31-2.4,2.3-6.17-0.03-8.42c-2.33-2.25-6.1-2.14-8.42,0.26c-2.31,2.4-2.3,6.17,0.03,8.42
			C205.16,127.3,208.92,127.19,211.24,124.79z M206.7,125.49c0.08-0.21,0.3-0.98-0.49-1.6l1.9-2.34l2.63,1.87
			c-0.12,0.16-0.24,0.33-0.39,0.49C209.35,124.94,208.03,125.47,206.7,125.49z M211.18,122.75l-5.41-3.84l2.02-2.73
			c0.85,0.85,2.2,1.72,2.2,1.72c0.5,0.62,1.14,0.47,1.4,0.38C212.02,119.68,211.94,121.34,211.18,122.75z M203.16,116.96
			c1.08-1.12,2.54-1.63,3.96-1.57l-2.23,2.89l-1.77-1.26C203.13,117,203.15,116.98,203.16,116.96z M202.51,117.79l4.68,3.27
			l-1.7,2.36l-2.19-1.4c0,0-0.73-0.54-1.21,0.49C201.46,121.01,201.59,119.24,202.51,117.79z"/>
	</g>
	<g class="st78">
		<polyline class="st30" points="186.24,145.64 185.14,146.49 183.44,143.54 185.08,142.62 186.24,145.64 		"/>
		<polyline class="st16" points="184.6,142.15 184.2,142.46 181.29,138 181.89,137.81 184.6,142.15 		"/>
		<polyline class="st85" points="179.26,133.98 177.86,135 179.84,137.96 181.41,137.34 179.26,133.98 		"/>
		<polygon class="st7" points="199.53,136.98 199.98,136.92 200.66,136.42 198.86,133.73 197.35,134.32 		"/>
		<polygon class="st7" points="194.41,129.47 194.74,128.51 195.23,128.08 193.28,125.19 191.95,126.04 		"/>
		<polygon class="st81" points="192.39,126.21 191.54,125.31 178.77,133.54 179.12,133.97 180.53,133.4 		"/>
		<path class="st52" d="M200.04,138.51l-12.44,8.17c0,0-1.21,0.35-0.94-0.68c0,0,0.13-0.33-0.43-0.36l-1.34-2.23l0.03-0.56
			l-3.04-5.04l-0.48-0.47l-0.34,0.15l-1.81-3.51l12.69-7.94l1.05,0.54l4.91,8.31l0.6-0.08L200.04,138.51z"/>
		<polyline class="st98" points="193.81,135.12 192.71,132.6 189.04,134.34 191.01,136.68 193.81,135.12 		"/>
		<path class="st26" d="M193.59,134.94l-2.93,1.56l-1.42-2.31l2.87-2.47c0,0-1.61-0.88-2.51-0.75c0,0-5.48-0.06-5.16,5.67l3.52,5.08
			c0,0,7.28,1.05,7.51-5.6L193.59,134.94"/>
		<path class="st27" d="M192.34,141.97c3.05-1.33,4.47-4.83,3.17-7.8c-1.3-2.97-4.83-4.3-7.88-2.96c-3.05,1.33-4.47,4.83-3.17,7.8
			C185.76,141.98,189.28,143.31,192.34,141.97z M187.88,140.9c0.16-0.17,0.65-0.79,0.16-1.67l2.65-1.44l1.72,2.73
			c-0.18,0.1-0.35,0.22-0.54,0.3C190.53,141.4,189.11,141.38,187.88,140.9z M193.06,140.06l-3.54-5.61l2.91-1.76
			c0.46,1.11,1.38,2.43,1.38,2.43c0.23,0.76,0.88,0.87,1.15,0.88C195,137.55,194.3,139.05,193.06,140.06z M187.85,131.66
			c1.43-0.63,2.97-0.54,4.26,0.06l-3.16,1.82l-1.16-1.84C187.81,131.68,187.83,131.67,187.85,131.66z M186.92,132.18l3.08,4.81
			l-2.47,1.54l-1.5-2.13c0,0-0.47-0.78-1.3-0.01C184.73,134.76,185.53,133.17,186.92,132.18z"/>
	</g>
	<g class="st78">
		<polyline class="st30" points="160.8,150.83 159.44,151.14 159.12,147.76 161,147.6 160.8,150.83 		"/>
		<polyline class="st16" points="160.76,146.97 160.26,147.09 159.47,141.82 160.09,141.9 160.76,146.97 		"/>
		<polyline class="st85" points="159.29,137.32 157.6,137.67 158.17,141.18 159.85,141.27 159.29,137.32 		"/>
		<polygon class="st7" points="176.48,148.49 176.92,148.62 177.74,148.45 177.23,145.25 175.6,145.16 		"/>
		<polygon class="st7" points="174.95,139.52 175.65,138.78 176.28,138.61 175.71,135.16 174.14,135.38 		"/>
		<polygon class="st81" points="174.47,135.72 174.07,134.55 159.04,136.71 159.17,137.25 160.69,137.32 		"/>
		<path class="st52" d="M176.31,150.09l-14.71,2.25c0,0-1.25-0.19-0.57-1.01c0,0,0.25-0.24-0.24-0.5l-0.29-2.59l0.26-0.5l-0.67-5.84
			l-0.24-0.63l-0.37-0.01l-0.19-3.94l14.85-1.94l0.73,0.93l1.01,9.6l0.58,0.18L176.31,150.09z"/>
		<polyline class="st98" points="172.05,144.41 172.1,141.66 168.04,141.72 168.86,144.67 172.05,144.41 		"/>
		<path class="st26" d="M171.93,144.16l-3.32,0.2l-0.33-2.69l3.64-1.06c0,0-1.1-1.46-1.97-1.73c0,0-4.96-2.33-7.05,3.01l1.08,6.08
			c0,0,6.18,3.98,9.16-1.97L171.93,144.16"/>
		<path class="st27" d="M167.86,150.03c3.33,0.06,6.07-2.53,6.13-5.77c0.06-3.25-2.6-5.92-5.93-5.98c-3.33-0.06-6.07,2.53-6.13,5.77
			C161.88,147.3,164.53,149.97,167.86,150.03z M164.25,147.19c0.21-0.08,0.92-0.44,0.84-1.45l3-0.21l0.43,3.2
			c-0.2,0.02-0.41,0.05-0.62,0.05C166.46,148.75,165.17,148.15,164.25,147.19z M169.32,148.59l-0.88-6.57l3.38-0.39
			c-0.04,1.2,0.24,2.79,0.24,2.79c-0.11,0.79,0.44,1.15,0.68,1.28C172.13,147.11,170.86,148.19,169.32,148.59z M168.08,138.78
			c1.56,0.03,2.92,0.74,3.85,1.82l-3.63,0.34l-0.29-2.16C168.03,138.79,168.05,138.78,168.08,138.78z M167.02,138.87l0.8,5.65
			l-2.89,0.37l-0.48-2.55c0,0-0.1-0.9-1.18-0.55C163.95,140.3,165.34,139.19,167.02,138.87z"/>
	</g>
	<g class="st78">
		<polyline class="st30" points="137.21,147.2 135.82,147.04 136.66,143.75 138.48,144.23 137.21,147.2 		"/>
		<polyline class="st16" points="138.47,143.56 137.96,143.5 139,138.28 139.56,138.56 138.47,143.56 		"/>
		<polyline class="st85" points="140.35,133.98 138.64,133.74 137.99,137.23 139.54,137.88 140.35,133.98 		"/>
		<polygon class="st7" points="152.77,150.29 153.13,150.56 153.96,150.68 154.56,147.49 153.06,146.86 		"/>
		<polygon class="st7" points="154.34,141.33 155.25,140.88 155.9,140.92 156.53,137.48 154.98,137.17 		"/>
		<polygon class="st81" points="155.18,137.6 155.2,136.36 140.31,133.32 140.26,133.88 141.67,134.45 		"/>
		<path class="st52" d="M152.06,151.74l-14.61-2.84c0,0-1.11-0.6-0.19-1.14c0,0,0.32-0.14-0.06-0.55l0.6-2.54l0.41-0.38l1.34-5.73
			l-0.01-0.67l-0.35-0.13l1.16-3.77l14.63,3.18l0.38,1.12l-2.29,9.38l0.49,0.36L152.06,151.74z"/>
		<polyline class="st98" points="149.97,144.96 150.94,142.39 147.09,141.07 146.88,144.13 149.97,144.96 		"/>
		<path class="st26" d="M149.94,144.68l-3.19-0.93l0.6-2.65l3.78,0.23c0,0-0.54-1.75-1.27-2.29c0,0-3.88-3.87-7.65,0.45l-1.03,6.09
			c0,0,4.48,5.83,9.29,1.24L149.94,144.68"/>
		<path class="st27" d="M144.13,148.83c3.12,1.18,6.57-0.33,7.72-3.37c1.15-3.04-0.45-6.45-3.57-7.63
			c-3.12-1.18-6.57,0.33-7.72,3.36C139.42,144.25,141.01,147.66,144.13,148.83z M141.69,144.95c0.23-0.01,1.02-0.11,1.28-1.09
			l2.9,0.82l-0.67,3.16c-0.2-0.05-0.4-0.09-0.6-0.16C143.24,147.16,142.23,146.16,141.69,144.95z M145.98,147.97l1.39-6.49
			l3.31,0.77c-0.44,1.12-0.71,2.71-0.71,2.71c-0.37,0.7,0.02,1.23,0.21,1.43C149.12,147.53,147.57,148.11,145.98,147.97z
			 M148.12,138.32c1.46,0.55,2.5,1.68,3.01,3.01l-3.54-0.9l0.46-2.13C148.08,138.31,148.1,138.31,148.12,138.32z M147.1,138.05
			l-1.15,5.59l-2.84-0.62l0.41-2.57c0,0,0.2-0.88-0.92-0.92C143.72,138.35,145.41,137.77,147.1,138.05z"/>
	</g>
	<g class="st78">
		<polyline class="st30" points="115.47,133.54 114.27,132.83 116.38,130.17 117.84,131.35 115.47,133.54 		"/>
		<polyline class="st16" points="118.11,130.73 117.66,130.46 120.73,126.12 121.13,126.6 118.11,130.73 		"/>
		<polyline class="st85" points="123.71,122.74 122.25,121.82 120.23,124.75 121.39,125.98 123.71,122.74 		"/>
		<polygon class="st7" points="128.44,142.68 128.66,143.08 129.37,143.52 131.21,140.85 130.1,139.67 		"/>
		<polygon class="st7" points="133.51,135.13 134.53,135.08 135.11,135.39 137.08,132.5 135.79,131.58 		"/>
		<polygon class="st81" points="135.79,132.06 136.31,130.93 123.94,122.12 123.67,122.6 124.72,123.7 		"/>
		<path class="st52" d="M127.21,143.72l-12.2-8.52c0,0-0.77-1,0.29-1.12c0,0,0.35,0,0.17-0.53l1.58-2.07l0.53-0.18l3.55-4.69
			l0.26-0.62l-0.27-0.26l2.59-2.98l12.08,8.85l-0.11,1.18l-5.9,7.64l0.3,0.53L127.21,143.72z"/>
		<polyline class="st98" points="128.04,136.67 129.98,134.72 127,131.95 125.56,134.66 128.04,136.67 		"/>
		<path class="st26" d="M128.13,136.41l-2.53-2.15l1.62-2.18l3.36,1.75c0,0,0.22-1.82-0.23-2.61c0,0-1.98-5.11-7.18-2.69l-3.41,5.15
			c0,0,1.73,7.15,7.99,4.9L128.13,136.41"/>
		<path class="st27" d="M121.14,137.85c2.37,2.34,6.14,2.36,8.42,0.06c2.28-2.31,2.21-6.08-0.17-8.42
			c-2.37-2.34-6.14-2.36-8.42-0.06C118.69,131.74,118.76,135.5,121.14,137.85z M120.48,133.3c0.21,0.08,0.97,0.31,1.61-0.47
			l2.32,1.92l-1.89,2.61c-0.16-0.13-0.33-0.24-0.48-0.39C121,135.96,120.49,134.63,120.48,133.3z M123.18,137.81l3.9-5.36l2.71,2.05
			c-0.86,0.84-1.75,2.18-1.75,2.18c-0.62,0.49-0.48,1.13-0.39,1.39C126.23,138.68,124.58,138.58,123.18,137.81z M129.05,129.86
			c1.11,1.1,1.61,2.55,1.53,3.98l-2.86-2.26l1.28-1.76C129.02,129.83,129.04,129.84,129.05,129.86z M128.22,129.19l-3.32,4.65
			l-2.34-1.72l1.42-2.18c0,0,0.55-0.72-0.47-1.21C125.02,128.1,126.79,128.26,128.22,129.19z"/>
	</g>
	<g class="st78">
		<polyline class="st30" points="100.6,112.99 99.76,111.88 102.71,110.19 103.62,111.84 100.6,112.99 		"/>
		<polyline class="st16" points="104.1,111.36 103.78,110.95 108.25,108.06 108.44,108.66 104.1,111.36 		"/>
		<polyline class="st85" points="112.28,106.04 111.27,104.64 108.31,106.61 108.92,108.18 112.28,106.04 		"/>
		<polygon class="st7" points="109.21,126.31 109.27,126.76 109.76,127.43 112.47,125.65 111.88,124.13 		"/>
		<polygon class="st7" points="116.74,121.21 117.7,121.54 118.12,122.04 121.03,120.1 120.18,118.77 		"/>
		<polygon class="st81" points="120,119.21 120.91,118.36 112.73,105.55 112.29,105.9 112.86,107.32 		"/>
		<path class="st52" d="M107.68,126.81l-8.12-12.46c0,0-0.34-1.21,0.69-0.93c0,0,0.33,0.13,0.36-0.43l2.24-1.33l0.56,0.03l5.05-3.03
			l0.47-0.48l-0.15-0.34l3.51-1.8l7.9,12.72l-0.54,1.05l-8.33,4.88l0.08,0.6L107.68,126.81z"/>
		<polyline class="st98" points="111.09,120.59 113.62,119.5 111.89,115.82 109.54,117.79 111.09,120.59 		"/>
		<path class="st26" d="M111.27,120.38l-1.55-2.94l2.32-1.41l2.46,2.88c0,0,0.88-1.6,0.76-2.5c0,0,0.08-5.48-5.65-5.18l-5.09,3.5
			c0,0-1.07,7.28,5.58,7.53L111.27,120.38"/>
		<path class="st27" d="M104.25,119.09c1.32,3.06,4.81,4.49,7.79,3.2c2.98-1.29,4.32-4.81,2.99-7.87c-1.32-3.06-4.81-4.49-7.79-3.2
			C104.26,112.51,102.92,116.04,104.25,119.09z M105.34,114.64c0.16,0.16,0.79,0.66,1.67,0.16l1.43,2.65l-2.73,1.71
			c-0.1-0.18-0.22-0.35-0.3-0.54C104.83,117.29,104.85,115.87,105.34,114.64z M106.16,119.82l5.62-3.52l1.75,2.91
			c-1.11,0.46-2.44,1.37-2.44,1.37c-0.76,0.22-0.87,0.87-0.88,1.14C108.66,121.77,107.16,121.07,106.16,119.82z M114.58,114.65
			c0.62,1.43,0.53,2.97-0.07,4.26l-1.81-3.17l1.85-1.15C114.55,114.6,114.57,114.62,114.58,114.65z M114.06,113.72l-4.82,3.07
			l-1.53-2.47l2.13-1.49c0,0,0.78-0.47,0.01-1.3C111.49,111.51,113.08,112.32,114.06,113.72z"/>
	</g>
	<g class="st78">
		<polyline class="st30" points="94.77,88.33 94.48,86.96 97.86,86.7 97.99,88.58 94.77,88.33 		"/>
		<polyline class="st16" points="98.62,88.35 98.52,87.85 103.79,87.15 103.71,87.77 98.62,88.35 		"/>
		<polyline class="st85" points="108.3,87.05 107.98,85.35 104.46,85.86 104.34,87.54 108.3,87.05 		"/>
		<polygon class="st7" points="96.85,104.05 96.71,104.49 96.87,105.3 100.07,104.85 100.19,103.23 		"/>
		<polygon class="st7" points="105.83,102.66 106.56,103.38 106.73,104.01 110.18,103.5 109.99,101.93 		"/>
		<polygon class="st81" points="109.64,102.25 110.82,101.87 108.91,86.8 108.36,86.93 108.27,88.45 		"/>
		<path class="st52" d="M95.25,103.85l-2.01-14.74c0,0,0.21-1.24,1.02-0.55c0,0,0.24,0.26,0.51-0.23l2.59-0.25l0.49,0.27l5.86-0.58
			l0.63-0.23l0.01-0.38l3.94-0.12l1.69,14.88l-0.94,0.72l-9.62,0.85l-0.19,0.58L95.25,103.85z"/>
		<polyline class="st98" points="101,99.69 103.74,99.78 103.75,95.72 100.79,96.49 101,99.69 		"/>
		<path class="st26" d="M101.25,99.57l-0.14-3.32l2.7-0.29l1,3.66c0,0,1.48-1.07,1.76-1.94c0,0,2.42-4.92-2.89-7.1l-6.1,0.98
			c0,0-4.08,6.12,1.82,9.19L101.25,99.57"/>
		<path class="st27" d="M95.45,95.41c-0.11,3.33,2.43,6.12,5.67,6.23c3.24,0.11,5.96-2.5,6.07-5.83c0.11-3.33-2.43-6.12-5.67-6.22
			C98.28,89.47,95.56,92.08,95.45,95.41z M98.34,91.85c0.08,0.21,0.43,0.93,1.44,0.86l0.16,3.01l-3.2,0.38
			c-0.02-0.2-0.05-0.41-0.04-0.62C96.74,94.03,97.37,92.75,98.34,91.85z M96.86,96.88l6.59-0.77l0.34,3.38
			c-1.2-0.06-2.79,0.19-2.79,0.19c-0.78-0.12-1.16,0.42-1.29,0.66C98.29,99.72,97.24,98.44,96.86,96.88z M106.69,95.81
			c-0.05,1.56-0.79,2.91-1.89,3.82l-0.28-3.64l2.16-0.25C106.69,95.76,106.69,95.78,106.69,95.81z M106.62,94.75l-5.67,0.71
			l-0.32-2.89l2.56-0.43c0,0,0.9-0.09,0.57-1.17C105.24,91.65,106.33,93.06,106.62,94.75z"/>
	</g>
	<g class="st78">
		<polyline class="st30" points="99.22,64.38 99.46,63.01 102.7,64.03 102.11,65.82 99.22,64.38 		"/>
		<polyline class="st16" points="102.79,65.84 102.88,65.33 108.03,66.65 107.72,67.2 102.79,65.84 		"/>
		<polyline class="st85" points="112.25,68.24 112.59,66.54 109.13,65.7 108.39,67.22 112.25,68.24 		"/>
		<polygon class="st7" points="95.29,79.75 95,80.1 94.84,80.92 97.98,81.69 98.7,80.23 		"/>
		<polygon class="st7" points="104.15,81.81 104.56,82.74 104.48,83.39 107.87,84.21 108.27,82.67 		"/>
		<polygon class="st81" points="107.83,82.85 109.07,82.93 112.91,68.23 112.36,68.15 111.71,69.53 		"/>
		<path class="st52" d="M93.88,78.97l3.63-14.43c0,0,0.66-1.08,1.15-0.13c0,0,0.13,0.33,0.56-0.03l2.5,0.74l0.36,0.43l5.65,1.65
			l0.67,0.02l0.15-0.34l3.7,1.36l-3.98,14.44l-1.14,0.32l-9.24-2.8l-0.39,0.46L93.88,78.97z"/>
		<polyline class="st98" points="100.77,77.25 103.28,78.36 104.8,74.59 101.76,74.2 100.77,77.25 		"/>
		<path class="st26" d="M101.04,77.23l1.11-3.13l2.61,0.74l-0.44,3.76c0,0,1.78-0.44,2.36-1.14c0,0,4.08-3.67-0.04-7.67l-6.03-1.36
			c0,0-6.07,4.16-1.74,9.21L101.04,77.23"/>
		<path class="st27" d="M97.21,71.21c-1.34,3.05-0.03,6.58,2.94,7.89c2.97,1.31,6.46-0.1,7.81-3.15c1.35-3.05,0.03-6.58-2.94-7.89
			C102.05,66.75,98.56,68.16,97.21,71.21z M101.23,68.98c0,0.23,0.05,1.02,1.02,1.33l-0.97,2.85l-3.11-0.84
			c0.06-0.2,0.11-0.4,0.19-0.59C98.93,70.41,99.99,69.45,101.23,68.98z M97.98,73.1l6.4,1.74l-0.95,3.26
			c-1.09-0.5-2.66-0.86-2.66-0.86c-0.68-0.41-1.23-0.04-1.44,0.13C98.25,76.26,97.75,74.68,97.98,73.1z M107.5,75.76
			c-0.63,1.43-1.82,2.41-3.17,2.84l1.1-3.48l2.1,0.57C107.51,75.72,107.51,75.74,107.5,75.76z M107.82,74.75l-5.52-1.45l0.78-2.8
			l2.54,0.55c0,0,0.87,0.25,0.96-0.87C107.7,71.37,108.19,73.08,107.82,74.75z"/>
	</g>
	<g class="st78">
		<polyline class="st30" points="112.62,42.62 113.35,41.43 115.98,43.58 114.77,45.03 112.62,42.62 		"/>
		<polyline class="st16" points="115.39,45.3 115.66,44.86 119.95,48 119.46,48.4 115.39,45.3 		"/>
		<polyline class="st85" points="123.27,51.05 124.22,49.6 121.32,47.54 120.07,48.67 123.27,51.05 		"/>
		<polygon class="st7" points="103.24,55.41 102.85,55.63 102.39,56.33 105.02,58.22 106.23,57.13 		"/>
		<polygon class="st7" points="110.7,60.63 110.73,61.64 110.41,62.21 113.26,64.24 114.21,62.96 		"/>
		<polygon class="st81" points="113.73,62.96 114.85,63.5 123.89,51.29 123.41,51.01 122.29,52.04 		"/>
		<path class="st52" d="M102.23,54.16l8.74-12.04c0,0,1.01-0.75,1.12,0.31c0,0,0,0.35,0.53,0.18l2.05,1.62l0.17,0.53l4.63,3.63
			l0.62,0.27l0.27-0.26l2.93,2.64l-9.07,11.92l-1.18-0.13l-7.53-6.04l-0.53,0.29L102.23,54.16z"/>
		<polyline class="st98" points="109.26,55.13 111.18,57.1 114,54.17 111.32,52.68 109.26,55.13 		"/>
		<path class="st26" d="M109.52,55.22l2.19-2.5l2.15,1.66l-1.81,3.33c0,0,1.81,0.25,2.61-0.18c0,0,5.15-1.88,2.82-7.13l-5.08-3.51
			c0,0-7.18,1.59-5.04,7.9L109.52,55.22"/>
		<path class="st27" d="M108.21,48.2c-2.38,2.33-2.48,6.1-0.21,8.42c2.27,2.32,6.04,2.31,8.42-0.01c2.38-2.33,2.48-6.09,0.21-8.42
			C114.36,45.87,110.6,45.87,108.21,48.2z M112.77,47.63c-0.09,0.21-0.33,0.97,0.44,1.62l-1.97,2.28l-2.58-1.94
			c0.13-0.16,0.25-0.33,0.4-0.48C110.1,48.1,111.44,47.61,112.77,47.63z M108.21,50.25l5.29,4l-2.1,2.67
			c-0.83-0.87-2.15-1.79-2.15-1.79c-0.48-0.63-1.13-0.5-1.38-0.42C107.29,53.28,107.41,51.63,108.21,50.25z M116.06,56.26
			c-1.12,1.09-2.58,1.56-4,1.45l2.31-2.82l1.74,1.31C116.09,56.22,116.08,56.25,116.06,56.26z M116.74,55.45l-4.59-3.41l1.76-2.31
			l2.15,1.46c0,0,0.71,0.56,1.22-0.45C117.88,52.26,117.7,54.03,116.74,55.45z"/>
	</g>
	<g class="st78">
		<polyline class="st30" points="133.17,28.15 134.29,27.31 135.96,30.27 134.31,31.18 133.17,28.15 		"/>
		<polyline class="st16" points="134.78,31.66 135.19,31.34 138.05,35.83 137.45,36.02 134.78,31.66 		"/>
		<polyline class="st85" points="140.05,39.87 141.45,38.87 139.51,35.89 137.93,36.5 140.05,39.87 		"/>
		<polygon class="st7" points="119.8,36.67 119.35,36.73 118.67,37.22 120.44,39.93 121.96,39.35 		"/>
		<polygon class="st7" points="124.85,44.24 124.51,45.2 124.01,45.61 125.93,48.53 127.27,47.69 		"/>
		<polygon class="st81" points="126.84,47.51 127.68,48.42 140.53,40.32 140.19,39.88 138.77,40.44 		"/>
		<path class="st52" d="M119.31,35.14l12.52-8.05c0,0,1.21-0.34,0.93,0.69c0,0-0.13,0.33,0.42,0.36l1.32,2.25l-0.03,0.56l2.99,5.06
			l0.47,0.48l0.34-0.15l1.77,3.52l-12.77,7.82l-1.05-0.55l-4.83-8.36l-0.6,0.08L119.31,35.14z"/>
		<polyline class="st98" points="125.51,38.59 126.58,41.12 130.27,39.42 128.32,37.06 125.51,38.59 		"/>
		<path class="st26" d="M125.72,38.77l2.95-1.53l1.4,2.33l-2.89,2.45c0,0,1.6,0.89,2.5,0.78c0,0,5.48,0.11,5.22-5.62l-3.47-5.11
			c0,0-7.27-1.12-7.56,5.53L125.72,38.77"/>
		<path class="st27" d="M127.05,31.76c-3.06,1.3-4.52,4.78-3.25,7.77c1.27,2.99,4.79,4.35,7.85,3.04c3.07-1.3,4.52-4.78,3.25-7.77
			C133.63,31.81,130.11,30.45,127.05,31.76z M131.5,32.88c-0.16,0.16-0.66,0.78-0.17,1.67l-2.66,1.41l-1.7-2.74
			c0.18-0.1,0.35-0.22,0.54-0.3C128.84,32.35,130.27,32.38,131.5,32.88z M126.3,33.66l3.48,5.64l-2.92,1.73
			c-0.45-1.11-1.36-2.45-1.36-2.45c-0.22-0.76-0.87-0.88-1.14-0.89C124.34,36.16,125.06,34.66,126.3,33.66z M131.43,42.12
			c-1.43,0.61-2.97,0.51-4.26-0.1l3.18-1.79l1.14,1.85C131.47,42.09,131.46,42.11,131.43,42.12z M132.36,41.6l-3.04-4.84l2.48-1.51
			l1.47,2.14c0,0,0.46,0.78,1.3,0.02C134.58,39.05,133.77,40.63,132.36,41.6z"/>
	</g>
	<circle class="st91" cx="161.9" cy="21.65" r="2.25"/>
	<circle class="st50" cx="161.94" cy="21.69" r="1.46"/>
	<circle class="st91" cx="202.65" cy="134.4" r="2.25"/>
	<circle class="st50" cx="202.69" cy="134.44" r="1.46"/>
	<circle class="st91" cx="95.23" cy="84.03" r="2.25"/>
	<circle class="st50" cx="95.27" cy="84.07" r="1.46"/>
	<path class="st50" d="M137.61,23.82c-1.5,0-2.71,1.21-2.71,2.71c0,1.5,1.21,2.71,2.71,2.71c1.5,0,2.71-1.21,2.71-2.71
		C140.31,25.03,139.1,23.82,137.61,23.82z M137.65,28.32c-0.97,0-1.75-0.78-1.75-1.75s0.78-1.75,1.75-1.75s1.75,0.78,1.75,1.75
		S138.61,28.32,137.65,28.32z"/>
	<path class="st50" d="M116.31,36.94c-1.5,0-2.71,1.21-2.71,2.71c0,1.5,1.21,2.71,2.71,2.71c1.5,0,2.71-1.21,2.71-2.71
		C119.02,38.16,117.81,36.94,116.31,36.94z M116.36,41.44c-0.97,0-1.75-0.78-1.75-1.75s0.78-1.75,1.75-1.75s1.75,0.78,1.75,1.75
		S117.32,41.44,116.36,41.44z"/>
	<path class="st50" d="M112.73,127.19c-1.5,0-2.71,1.21-2.71,2.71c0,1.5,1.21,2.71,2.71,2.71c1.5,0,2.71-1.21,2.71-2.71
		C115.44,128.41,114.23,127.19,112.73,127.19z M112.77,131.69c-0.97,0-1.75-0.78-1.75-1.75s0.78-1.75,1.75-1.75s1.75,0.78,1.75,1.75
		S113.74,131.69,112.77,131.69z"/>
	<path class="st50" d="M132.94,141.82c-1.5,0-2.71,1.21-2.71,2.71c0,1.5,1.21,2.71,2.71,2.71c1.5,0,2.71-1.21,2.71-2.71
		C135.65,143.03,134.44,141.82,132.94,141.82z M132.98,146.32c-0.97,0-1.75-0.78-1.75-1.75s0.78-1.75,1.75-1.75s1.75,0.78,1.75,1.75
		S133.95,146.32,132.98,146.32z"/>
	<path class="st50" d="M223.48,85.94c-1.5,0-2.71,1.21-2.71,2.71c0,1.5,1.21,2.71,2.71,2.71c1.5,0,2.71-1.21,2.71-2.71
		C226.19,87.16,224.98,85.94,223.48,85.94z M223.52,90.44c-0.97,0-1.75-0.78-1.75-1.75s0.78-1.75,1.75-1.75s1.75,0.78,1.75,1.75
		S224.49,90.44,223.52,90.44z"/>
	<path class="st50" d="M206.36,40.19c-1.5,0-2.71,1.21-2.71,2.71c0,1.5,1.21,2.71,2.71,2.71c1.5,0,2.71-1.21,2.71-2.71
		C209.06,41.41,207.85,40.19,206.36,40.19z M206.4,44.69c-0.97,0-1.75-0.78-1.75-1.75s0.78-1.75,1.75-1.75s1.75,0.78,1.75,1.75
		S207.36,44.69,206.4,44.69z"/>
</g>
<g id="afbeelding_4_" class="st94">
	
		<image style="display:inline;overflow:visible;" width="1277" height="897" xlink:href="../../../arduino-fritz.png"  transform="matrix(0.1603 0 0 0.1603 57.002 13.502)">
	</image>
</g>
<g id="Arduino" class="st94">
	<path class="st79" d="M260.23,55.42l-6.63-6.63V17.79l-4.24-4.24L78.16,13.28c-3.98,0.26-3.53,4.24-3.53,4.24l-0.35,107.42
		l0.44,30.26c0,2.78,2.39,2.92,2.39,2.92l173.33,0.13c3.05,0,3.18-2.38,3.18-2.38v-4.24l6.89-6.89L260.23,55.42z M112.53,155.69
		c-2.39,0-4.33-1.94-4.33-4.33c0-2.39,1.94-4.33,4.33-4.33c2.39,0,4.33,1.94,4.33,4.33C116.86,153.75,114.92,155.69,112.53,155.69z
		 M116.06,24.94c-2.39,0-4.33-1.94-4.33-4.33s1.94-4.33,4.33-4.33s4.33,1.94,4.33,4.33S118.45,24.94,116.06,24.94z M253.7,57.63
		c2.39,0,4.33,1.94,4.33,4.33s-1.94,4.33-4.33,4.33s-4.33-1.94-4.33-4.33S251.31,57.63,253.7,57.63z M253.7,141.91
		c-2.39,0-4.33-1.94-4.33-4.33c0-2.39,1.94-4.33,4.33-4.33s4.33,1.94,4.33,4.33C258.03,139.97,256.09,141.91,253.7,141.91z"/>
	<rect x="150.07" y="106.22" class="st74" width="100.53" height="14.84"/>
	<polygon class="st6" points="57.63,70.53 57.76,39.65 99.9,39.52 99.9,70.53 	"/>
	<rect x="57.76" y="39.42" class="st28" width="42.14" height="2.05"/>
	<rect x="57.76" y="68.41" class="st31" width="42.14" height="1.99"/>
	<rect x="57.76" y="39.52" class="st59" width="6.89" height="31.01"/>
	<rect x="78.5" y="16.53" class="st57" width="2.92" height="2.32"/>
	<rect x="78.5" y="28.19" class="st57" width="2.92" height="2.32"/>
	<rect x="100.63" y="16.4" class="st57" width="2.92" height="2.32"/>
	<rect x="100.69" y="28.12" class="st57" width="2.92" height="2.32"/>
	<polygon class="st6" points="81.01,14.67 81.01,32.3 87.11,32.3 87.11,32.03 94.79,32.03 94.79,32.43 100.89,32.43 100.89,14.61 
		94.79,14.61 94.79,15.27 86.91,15.27 86.91,14.61 	"/>
	<circle class="st41" cx="90.89" cy="23.42" r="4.97"/>
	<rect x="78.23" y="22.18" class="st57" width="2.92" height="2.32"/>
	<rect x="122.16" y="16.86" class="st95" width="68.77" height="7.16"/>
	<rect x="195.04" y="16.86" class="st95" width="55.12" height="7.16"/>
	<rect x="124.1" y="123.71" class="st63" width="1.15" height="1.5"/>
	<rect x="124.1" y="141.69" class="st63" width="1.15" height="1.5"/>
	<path class="st74" d="M115.71,141.29l0.09-12.99l3.53-3.45l10.34-0.09l3.8,3.53l-0.18,12.81c0,0,0,1.06-1.15,1.24l-14.84,0.09
		C117.3,142.44,116.06,142,115.71,141.29z"/>
	<g class="st78">
		<polygon class="st37" points="123.35,22.82 124.37,21.76 126.93,21.76 127.86,22.82 		"/>
		<polygon class="st83" points="123.35,22.82 123.35,18.36 124.37,19.29 124.37,21.76 		"/>
		<polygon class="st65" points="123.26,18.27 127.86,18.27 126.93,19.29 124.37,19.29 		"/>
		<polygon class="st2" points="126.93,21.76 127.86,22.82 127.86,18.27 126.93,19.29 		"/>
		<rect x="124.37" y="19.29" width="2.56" height="2.47"/>
	</g>
	<g class="st78">
		<polygon class="st37" points="130.29,22.82 131.3,21.76 133.86,21.76 134.79,22.82 		"/>
		<polygon class="st83" points="130.29,22.82 130.29,18.36 131.3,19.29 131.3,21.76 		"/>
		<polygon class="st65" points="130.2,18.27 134.79,18.27 133.86,19.29 131.3,19.29 		"/>
		<polygon class="st2" points="133.86,21.76 134.79,22.82 134.79,18.27 133.86,19.29 		"/>
		<rect x="131.3" y="19.29" width="2.56" height="2.47"/>
	</g>
	<g class="st78">
		<polygon class="st37" points="137.09,22.82 138.1,21.76 140.67,21.76 141.59,22.82 		"/>
		<polygon class="st83" points="137.09,22.82 137.09,18.36 138.1,19.29 138.1,21.76 		"/>
		<polygon class="st65" points="137,18.27 141.59,18.27 140.67,19.29 138.1,19.29 		"/>
		<polygon class="st2" points="140.67,21.76 141.59,22.82 141.59,18.27 140.67,19.29 		"/>
		<rect x="138.1" y="19.29" width="2.56" height="2.47"/>
	</g>
	<g class="st78">
		<polygon class="st37" points="144.02,22.82 145.04,21.76 147.6,21.76 148.53,22.82 		"/>
		<polygon class="st83" points="144.02,22.82 144.02,18.36 145.04,19.29 145.04,21.76 		"/>
		<polygon class="st65" points="143.93,18.27 148.53,18.27 147.6,19.29 145.04,19.29 		"/>
		<polygon class="st2" points="147.6,21.76 148.53,22.82 148.53,18.27 147.6,19.29 		"/>
		<rect x="145.04" y="19.29" width="2.56" height="2.47"/>
	</g>
	<g class="st78">
		<polygon class="st37" points="150.91,22.82 151.93,21.76 154.49,21.76 155.42,22.82 		"/>
		<polygon class="st83" points="150.91,22.82 150.91,18.36 151.93,19.29 151.93,21.76 		"/>
		<polygon class="st65" points="150.83,18.27 155.42,18.27 154.49,19.29 151.93,19.29 		"/>
		<polygon class="st2" points="154.49,21.76 155.42,22.82 155.42,18.27 154.49,19.29 		"/>
		<rect x="151.93" y="19.29" width="2.56" height="2.47"/>
	</g>
	<g class="st78">
		<polygon class="st37" points="157.76,22.82 158.78,21.76 161.34,21.76 162.27,22.82 		"/>
		<polygon class="st83" points="157.76,22.82 157.76,18.36 158.78,19.29 158.78,21.76 		"/>
		<polygon class="st65" points="157.67,18.27 162.27,18.27 161.34,19.29 158.78,19.29 		"/>
		<polygon class="st2" points="161.34,21.76 162.27,22.82 162.27,18.27 161.34,19.29 		"/>
		<rect x="158.78" y="19.29" width="2.56" height="2.47"/>
	</g>
	<g class="st78">
		<polygon class="st37" points="164.61,22.82 165.62,21.76 168.18,21.76 169.11,22.82 		"/>
		<polygon class="st83" points="164.61,22.82 164.61,18.36 165.62,19.29 165.62,21.76 		"/>
		<polygon class="st65" points="164.52,18.27 169.11,18.27 168.18,19.29 165.62,19.29 		"/>
		<polygon class="st2" points="168.18,21.76 169.11,22.82 169.11,18.27 168.18,19.29 		"/>
		<rect x="165.62" y="19.29" width="2.56" height="2.47"/>
	</g>
	<g class="st78">
		<polygon class="st37" points="171.5,22.82 172.51,21.76 175.07,21.76 176,22.82 		"/>
		<polygon class="st83" points="171.5,22.82 171.5,18.36 172.51,19.29 172.51,21.76 		"/>
		<polygon class="st65" points="171.41,18.27 176,18.27 175.07,19.29 172.51,19.29 		"/>
		<polygon class="st2" points="175.07,21.76 176,22.82 176,18.27 175.07,19.29 		"/>
		<rect x="172.51" y="19.29" width="2.56" height="2.47"/>
	</g>
	<g class="st78">
		<polygon class="st37" points="178.39,22.82 179.4,21.76 181.96,21.76 182.89,22.82 		"/>
		<polygon class="st83" points="178.39,22.82 178.39,18.36 179.4,19.29 179.4,21.76 		"/>
		<polygon class="st65" points="178.3,18.27 182.89,18.27 181.96,19.29 179.4,19.29 		"/>
		<polygon class="st2" points="181.96,21.76 182.89,22.82 182.89,18.27 181.96,19.29 		"/>
		<rect x="179.4" y="19.29" width="2.56" height="2.47"/>
	</g>
	<g class="st78">
		<polygon class="st37" points="185.32,22.82 186.34,21.76 188.9,21.76 189.83,22.82 		"/>
		<polygon class="st83" points="185.32,22.82 185.32,18.36 186.34,19.29 186.34,21.76 		"/>
		<polygon class="st65" points="185.23,18.27 189.83,18.27 188.9,19.29 186.34,19.29 		"/>
		<polygon class="st2" points="188.9,21.76 189.83,22.82 189.83,18.27 188.9,19.29 		"/>
		<rect x="186.34" y="19.29" width="2.56" height="2.47"/>
	</g>
	<g class="st78">
		<polygon class="st37" points="196.28,22.82 197.29,21.76 199.85,21.76 200.78,22.82 		"/>
		<polygon class="st83" points="196.28,22.82 196.28,18.36 197.29,19.29 197.29,21.76 		"/>
		<polygon class="st65" points="196.19,18.27 200.78,18.27 199.85,19.29 197.29,19.29 		"/>
		<polygon class="st2" points="199.85,21.76 200.78,22.82 200.78,18.27 199.85,19.29 		"/>
		<rect x="197.29" y="19.29" width="2.56" height="2.47"/>
	</g>
	<g class="st78">
		<polygon class="st37" points="203.3,22.82 204.31,21.76 206.88,21.76 207.8,22.82 		"/>
		<polygon class="st83" points="203.3,22.82 203.3,18.36 204.31,19.29 204.31,21.76 		"/>
		<polygon class="st65" points="203.21,18.27 207.8,18.27 206.88,19.29 204.31,19.29 		"/>
		<polygon class="st2" points="206.88,21.76 207.8,22.82 207.8,18.27 206.88,19.29 		"/>
		<rect x="204.31" y="19.29" width="2.56" height="2.47"/>
	</g>
	<g class="st78">
		<polygon class="st37" points="210.15,22.82 211.16,21.76 213.72,21.76 214.65,22.82 		"/>
		<polygon class="st83" points="210.15,22.82 210.15,18.36 211.16,19.29 211.16,21.76 		"/>
		<polygon class="st65" points="210.06,18.27 214.65,18.27 213.72,19.29 211.16,19.29 		"/>
		<polygon class="st2" points="213.72,21.76 214.65,22.82 214.65,18.27 213.72,19.29 		"/>
		<rect x="211.16" y="19.29" width="2.56" height="2.47"/>
	</g>
	<g class="st78">
		<polygon class="st37" points="216.99,22.82 218.01,21.76 220.57,21.76 221.5,22.82 		"/>
		<polygon class="st83" points="216.99,22.82 216.99,18.36 218.01,19.29 218.01,21.76 		"/>
		<polygon class="st65" points="216.9,18.27 221.5,18.27 220.57,19.29 218.01,19.29 		"/>
		<polygon class="st2" points="220.57,21.76 221.5,22.82 221.5,18.27 220.57,19.29 		"/>
		<rect x="218.01" y="19.29" width="2.56" height="2.47"/>
	</g>
	<g class="st78">
		<polygon class="st37" points="223.88,22.82 224.9,21.76 227.46,21.76 228.39,22.82 		"/>
		<polygon class="st83" points="223.88,22.82 223.88,18.36 224.9,19.29 224.9,21.76 		"/>
		<polygon class="st65" points="223.79,18.27 228.39,18.27 227.46,19.29 224.9,19.29 		"/>
		<polygon class="st2" points="227.46,21.76 228.39,22.82 228.39,18.27 227.46,19.29 		"/>
		<rect x="224.9" y="19.29" width="2.56" height="2.47"/>
	</g>
	<g class="st78">
		<polygon class="st37" points="230.73,22.82 231.75,21.76 234.31,21.76 235.23,22.82 		"/>
		<polygon class="st83" points="230.73,22.82 230.73,18.36 231.75,19.29 231.75,21.76 		"/>
		<polygon class="st65" points="230.64,18.27 235.23,18.27 234.31,19.29 231.75,19.29 		"/>
		<polygon class="st2" points="234.31,21.76 235.23,22.82 235.23,18.27 234.31,19.29 		"/>
		<rect x="231.75" y="19.29" width="2.56" height="2.47"/>
	</g>
	<g class="st78">
		<polygon class="st37" points="237.62,22.82 238.64,21.76 241.2,21.76 242.13,22.82 		"/>
		<polygon class="st83" points="237.62,22.82 237.62,18.36 238.64,19.29 238.64,21.76 		"/>
		<polygon class="st65" points="237.53,18.27 242.13,18.27 241.2,19.29 238.64,19.29 		"/>
		<polygon class="st2" points="241.2,21.76 242.13,22.82 242.13,18.27 241.2,19.29 		"/>
		<rect x="238.64" y="19.29" width="2.56" height="2.47"/>
	</g>
	<g class="st78">
		<polygon class="st37" points="244.51,22.82 245.53,21.76 248.09,21.76 249.02,22.82 		"/>
		<polygon class="st83" points="244.51,22.82 244.51,18.36 245.53,19.29 245.53,21.76 		"/>
		<polygon class="st65" points="244.42,18.27 249.02,18.27 248.09,19.29 245.53,19.29 		"/>
		<polygon class="st2" points="248.09,21.76 249.02,22.82 249.02,18.27 248.09,19.29 		"/>
		<rect x="245.53" y="19.29" width="2.56" height="2.47"/>
	</g>
	<polygon class="st95" points="114.01,27.53 114.07,38.39 115.43,39.75 119.31,39.75 120.68,38.38 120.68,27.59 119.23,26.14 
		115.47,26.14 	"/>
	<polygon class="st95" points="121.06,27.53 121.13,38.39 122.49,39.75 126.37,39.75 127.74,38.38 127.74,27.59 126.29,26.14 
		122.52,26.14 	"/>
	<polygon class="st95" points="127.79,27.53 127.86,38.39 129.21,39.75 133.09,39.75 134.46,38.38 134.46,27.59 133.02,26.14 
		129.25,26.14 	"/>
	<rect x="146.89" y="147.61" class="st95" width="55.13" height="7.16"/>
	<g class="st78">
		<polygon class="st37" points="148.13,153.57 149.15,152.51 151.71,152.51 152.64,153.57 		"/>
		<polygon class="st83" points="148.13,153.57 148.13,149.11 149.15,150.03 149.15,152.51 		"/>
		<polygon class="st65" points="148.04,149.02 152.64,149.02 151.71,150.03 149.15,150.03 		"/>
		<polygon class="st2" points="151.71,152.51 152.64,153.57 152.64,149.02 151.71,150.03 		"/>
		<rect x="149.15" y="150.03" width="2.56" height="2.47"/>
	</g>
	<g class="st78">
		<polygon class="st37" points="155.15,153.57 156.17,152.51 158.73,152.51 159.66,153.57 		"/>
		<polygon class="st83" points="155.15,153.57 155.15,149.11 156.17,150.03 156.17,152.51 		"/>
		<polygon class="st65" points="155.06,149.02 159.66,149.02 158.73,150.03 156.17,150.03 		"/>
		<polygon class="st2" points="158.73,152.51 159.66,153.57 159.66,149.02 158.73,150.03 		"/>
		<rect x="156.17" y="150.03" width="2.56" height="2.47"/>
	</g>
	<g class="st78">
		<polygon class="st37" points="162,153.57 163.02,152.51 165.58,152.51 166.5,153.57 		"/>
		<polygon class="st83" points="162,153.57 162,149.11 163.02,150.03 163.02,152.51 		"/>
		<polygon class="st65" points="161.91,149.02 166.5,149.02 165.58,150.03 163.02,150.03 		"/>
		<polygon class="st2" points="165.58,152.51 166.5,153.57 166.5,149.02 165.58,150.03 		"/>
		<rect x="163.02" y="150.03" width="2.56" height="2.47"/>
	</g>
	<g class="st78">
		<polygon class="st37" points="168.85,153.57 169.86,152.51 172.42,152.51 173.35,153.57 		"/>
		<polygon class="st83" points="168.85,153.57 168.85,149.11 169.86,150.03 169.86,152.51 		"/>
		<polygon class="st65" points="168.76,149.02 173.35,149.02 172.42,150.03 169.86,150.03 		"/>
		<polygon class="st2" points="172.42,152.51 173.35,153.57 173.35,149.02 172.42,150.03 		"/>
		<rect x="169.86" y="150.03" width="2.56" height="2.47"/>
	</g>
	<g class="st78">
		<polygon class="st37" points="175.74,153.57 176.75,152.51 179.31,152.51 180.24,153.57 		"/>
		<polygon class="st83" points="175.74,153.57 175.74,149.11 176.75,150.03 176.75,152.51 		"/>
		<polygon class="st65" points="175.65,149.02 180.24,149.02 179.31,150.03 176.75,150.03 		"/>
		<polygon class="st2" points="179.31,152.51 180.24,153.57 180.24,149.02 179.31,150.03 		"/>
		<rect x="176.75" y="150.03" width="2.56" height="2.47"/>
	</g>
	<g class="st78">
		<polygon class="st37" points="182.58,153.57 183.6,152.51 186.16,152.51 187.09,153.57 		"/>
		<polygon class="st83" points="182.58,153.57 182.58,149.11 183.6,150.03 183.6,152.51 		"/>
		<polygon class="st65" points="182.49,149.02 187.09,149.02 186.16,150.03 183.6,150.03 		"/>
		<polygon class="st2" points="186.16,152.51 187.09,153.57 187.09,149.02 186.16,150.03 		"/>
		<rect x="183.6" y="150.03" width="2.56" height="2.47"/>
	</g>
	<g class="st78">
		<polygon class="st37" points="189.47,153.57 190.49,152.51 193.05,152.51 193.98,153.57 		"/>
		<polygon class="st83" points="189.47,153.57 189.47,149.11 190.49,150.03 190.49,152.51 		"/>
		<polygon class="st65" points="189.39,149.02 193.98,149.02 193.05,150.03 190.49,150.03 		"/>
		<polygon class="st2" points="193.05,152.51 193.98,153.57 193.98,149.02 193.05,150.03 		"/>
		<rect x="190.49" y="150.03" width="2.56" height="2.47"/>
	</g>
	<g class="st78">
		<polygon class="st37" points="196.36,153.57 197.38,152.51 199.94,152.51 200.87,153.57 		"/>
		<polygon class="st83" points="196.36,153.57 196.36,149.11 197.38,150.03 197.38,152.51 		"/>
		<polygon class="st65" points="196.28,149.02 200.87,149.02 199.94,150.03 197.38,150.03 		"/>
		<polygon class="st2" points="199.94,152.51 200.87,153.57 200.87,149.02 199.94,150.03 		"/>
		<rect x="197.38" y="150.03" width="2.56" height="2.47"/>
	</g>
	<rect x="209.26" y="147.78" class="st95" width="41.17" height="7.16"/>
	<g class="st78">
		<polygon class="st37" points="210.5,153.74 211.52,152.68 214.08,152.68 215,153.74 		"/>
		<polygon class="st83" points="210.5,153.74 210.5,149.28 211.52,150.21 211.52,152.68 		"/>
		<polygon class="st65" points="210.41,149.2 215,149.2 214.08,150.21 211.52,150.21 		"/>
		<polygon class="st2" points="214.08,152.68 215,153.74 215,149.2 214.08,150.21 		"/>
		<rect x="211.52" y="150.21" width="2.56" height="2.47"/>
	</g>
	<g class="st78">
		<polygon class="st37" points="217.52,153.74 218.54,152.68 221.1,152.68 222.03,153.74 		"/>
		<polygon class="st83" points="217.52,153.74 217.52,149.28 218.54,150.21 218.54,152.68 		"/>
		<polygon class="st65" points="217.43,149.2 222.03,149.2 221.1,150.21 218.54,150.21 		"/>
		<polygon class="st2" points="221.1,152.68 222.03,153.74 222.03,149.2 221.1,150.21 		"/>
		<rect x="218.54" y="150.21" width="2.56" height="2.47"/>
	</g>
	<g class="st78">
		<polygon class="st37" points="224.37,153.74 225.38,152.68 227.95,152.68 228.87,153.74 		"/>
		<polygon class="st83" points="224.37,153.74 224.37,149.28 225.38,150.21 225.38,152.68 		"/>
		<polygon class="st65" points="224.28,149.2 228.87,149.2 227.95,150.21 225.38,150.21 		"/>
		<polygon class="st2" points="227.95,152.68 228.87,153.74 228.87,149.2 227.95,150.21 		"/>
		<rect x="225.38" y="150.21" width="2.56" height="2.47"/>
	</g>
	<g class="st78">
		<polygon class="st37" points="231.21,153.74 232.23,152.68 234.79,152.68 235.72,153.74 		"/>
		<polygon class="st83" points="231.21,153.74 231.21,149.28 232.23,150.21 232.23,152.68 		"/>
		<polygon class="st65" points="231.13,149.2 235.72,149.2 234.79,150.21 232.23,150.21 		"/>
		<polygon class="st2" points="234.79,152.68 235.72,153.74 235.72,149.2 234.79,150.21 		"/>
		<rect x="232.23" y="150.21" width="2.56" height="2.47"/>
	</g>
	<g class="st78">
		<polygon class="st37" points="238.11,153.74 239.12,152.68 241.68,152.68 242.61,153.74 		"/>
		<polygon class="st83" points="238.11,153.74 238.11,149.28 239.12,150.21 239.12,152.68 		"/>
		<polygon class="st65" points="238.02,149.2 242.61,149.2 241.68,150.21 239.12,150.21 		"/>
		<polygon class="st2" points="241.68,152.68 242.61,153.74 242.61,149.2 241.68,150.21 		"/>
		<rect x="239.12" y="150.21" width="2.56" height="2.47"/>
	</g>
	<g class="st78">
		<polygon class="st37" points="244.95,153.74 245.97,152.68 248.53,152.68 249.46,153.74 		"/>
		<polygon class="st83" points="244.95,153.74 244.95,149.28 245.97,150.21 245.97,152.68 		"/>
		<polygon class="st65" points="244.86,149.2 249.46,149.2 248.53,150.21 245.97,150.21 		"/>
		<polygon class="st2" points="248.53,152.68 249.46,153.74 249.46,149.2 248.53,150.21 		"/>
		<rect x="245.97" y="150.21" width="2.56" height="2.47"/>
	</g>
	<circle class="st46" cx="124.61" cy="133.4" r="8.41"/>
	<rect x="143.54" y="123.53" class="st63" width="1.15" height="1.5"/>
	<rect x="143.54" y="141.51" class="st63" width="1.15" height="1.5"/>
	<path class="st74" d="M135.14,141.11l0.09-12.99l3.53-3.45l10.34-0.09l3.8,3.53l-0.18,12.81c0,0,0,1.06-1.15,1.24l-14.84,0.09
		C136.73,142.26,135.5,141.82,135.14,141.11z"/>
	<circle class="st46" cx="144.04" cy="133.23" r="8.41"/>
	<path class="st87" d="M117.74,138.37l13.6-0.09c0,0-1.5,3.62-6.98,3.53C124.37,141.82,120.3,141.82,117.74,138.37z"/>
	<path class="st87" d="M137.18,138.2l13.6-0.09c0,0-1.5,3.62-6.98,3.53C143.8,141.64,139.74,141.64,137.18,138.2z"/>
	<g class="st78">
		<rect x="116.06" y="28.32" class="st34" width="2.39" height="2.19"/>
		<polygon class="st64" points="116.08,30.62 116.64,29.96 117.79,29.96 118.46,30.67 		"/>
		<polygon class="st21" points="116.08,30.62 116.06,28.27 116.79,28.96 116.79,29.96 		"/>
		<polygon class="st4" points="116.08,28.32 118.47,28.28 117.81,28.94 116.79,28.96 		"/>
		<polygon class="st49" points="117.82,28.92 117.79,29.96 118.45,30.64 118.47,28.28 		"/>
	</g>
	<g class="st78">
		<rect x="116.03" y="35.18" class="st34" width="2.39" height="2.19"/>
		<polygon class="st64" points="116.05,37.48 116.6,36.81 117.75,36.81 118.43,37.53 		"/>
		<polygon class="st21" points="116.05,37.48 116.03,35.13 116.76,35.82 116.76,36.81 		"/>
		<polygon class="st4" points="116.05,35.18 118.44,35.14 117.77,35.8 116.76,35.82 		"/>
		<polygon class="st49" points="117.79,35.78 117.75,36.81 118.41,37.5 118.44,35.14 		"/>
	</g>
	<g class="st78">
		<rect x="123.12" y="28.32" class="st34" width="2.39" height="2.19"/>
		<polygon class="st64" points="123.14,30.62 123.69,29.96 124.84,29.96 125.52,30.67 		"/>
		<polygon class="st21" points="123.14,30.62 123.12,28.27 123.85,28.96 123.85,29.96 		"/>
		<polygon class="st4" points="123.14,28.32 125.53,28.28 124.86,28.94 123.85,28.96 		"/>
		<polygon class="st49" points="124.87,28.92 124.84,29.96 125.5,30.64 125.53,28.28 		"/>
	</g>
	<g class="st78">
		<rect x="123.09" y="35.18" class="st34" width="2.39" height="2.19"/>
		<polygon class="st64" points="123.11,37.48 123.66,36.81 124.81,36.81 125.49,37.53 		"/>
		<polygon class="st21" points="123.11,37.48 123.09,35.13 123.81,35.82 123.81,36.81 		"/>
		<polygon class="st4" points="123.11,35.18 125.49,35.14 124.83,35.8 123.81,35.82 		"/>
		<polygon class="st49" points="124.84,35.78 124.81,36.81 125.47,37.5 125.49,35.14 		"/>
	</g>
	<g class="st78">
		<rect x="129.84" y="28.32" class="st34" width="2.39" height="2.19"/>
		<polygon class="st64" points="129.87,30.62 130.42,29.96 131.57,29.96 132.25,30.67 		"/>
		<polygon class="st21" points="129.87,30.62 129.84,28.27 130.57,28.96 130.57,29.96 		"/>
		<polygon class="st4" points="129.87,28.32 132.25,28.28 131.59,28.94 130.57,28.96 		"/>
		<polygon class="st49" points="131.6,28.92 131.57,29.96 132.23,30.64 132.25,28.28 		"/>
	</g>
	<g class="st78">
		<rect x="129.81" y="35.18" class="st34" width="2.39" height="2.19"/>
		<polygon class="st64" points="129.83,37.48 130.38,36.81 131.53,36.81 132.21,37.53 		"/>
		<polygon class="st21" points="129.83,37.48 129.81,35.13 130.54,35.82 130.54,36.81 		"/>
		<polygon class="st4" points="129.83,35.18 132.22,35.14 131.56,35.8 130.54,35.82 		"/>
		<polygon class="st49" points="131.57,35.78 131.53,36.81 132.2,37.5 132.22,35.14 		"/>
	</g>
	<polygon class="st95" points="255.99,72.16 245.13,72.23 243.77,73.59 243.77,77.46 245.15,78.84 255.93,78.84 257.38,77.39 
		257.38,73.62 	"/>
	<polygon class="st95" points="255.99,79.22 245.13,79.28 243.77,80.64 243.77,84.52 245.15,85.89 255.93,85.89 257.38,84.44 
		257.38,80.67 	"/>
	<polygon class="st95" points="255.99,85.94 245.13,86.01 243.77,87.37 243.77,91.24 245.15,92.62 255.93,92.62 257.38,91.17 
		257.38,87.4 	"/>
	<g class="st78">
		<rect x="253.01" y="74.21" class="st34" width="2.19" height="2.39"/>
		<polygon class="st64" points="252.9,74.24 253.57,74.79 253.57,75.94 252.85,76.62 		"/>
		<polygon class="st21" points="252.9,74.24 255.25,74.21 254.56,74.94 253.57,74.94 		"/>
		<polygon class="st4" points="255.2,74.24 255.24,76.62 254.58,75.96 254.56,74.94 		"/>
		<polygon class="st49" points="254.6,75.97 253.57,75.94 252.88,76.6 255.24,76.62 		"/>
	</g>
	<g class="st78">
		<rect x="246.16" y="74.18" class="st34" width="2.19" height="2.39"/>
		<polygon class="st64" points="246.05,74.21 246.71,74.76 246.71,75.9 245.99,76.58 		"/>
		<polygon class="st21" points="246.05,74.21 248.39,74.18 247.7,74.91 246.71,74.91 		"/>
		<polygon class="st4" points="248.34,74.21 248.39,76.59 247.72,75.93 247.7,74.91 		"/>
		<polygon class="st49" points="247.75,75.94 246.71,75.9 246.02,76.57 248.39,76.59 		"/>
	</g>
	<g class="st78">
		<rect x="253.01" y="81.27" class="st34" width="2.19" height="2.38"/>
		<polygon class="st64" points="252.9,81.29 253.57,81.84 253.57,82.99 252.85,83.67 		"/>
		<polygon class="st21" points="252.9,81.29 255.25,81.27 254.56,82 253.57,82 		"/>
		<polygon class="st4" points="255.2,81.29 255.24,83.68 254.58,83.02 254.56,82 		"/>
		<polygon class="st49" points="254.6,83.03 253.57,82.99 252.88,83.66 255.24,83.68 		"/>
	</g>
	<g class="st78">
		<rect x="246.16" y="81.24" class="st34" width="2.19" height="2.38"/>
		<polygon class="st64" points="246.05,81.26 246.71,81.81 246.71,82.96 245.99,83.64 		"/>
		<polygon class="st21" points="246.05,81.26 248.39,81.24 247.7,81.97 246.71,81.97 		"/>
		<polygon class="st4" points="248.34,81.26 248.39,83.65 247.72,82.98 247.7,81.97 		"/>
		<polygon class="st49" points="247.75,82.99 246.71,82.96 246.02,83.62 248.39,83.65 		"/>
	</g>
	<g class="st78">
		<rect x="253.01" y="88" class="st34" width="2.19" height="2.39"/>
		<polygon class="st64" points="252.9,88.02 253.57,88.57 253.57,89.72 252.85,90.4 		"/>
		<polygon class="st21" points="252.9,88.02 255.25,88 254.56,88.72 253.57,88.72 		"/>
		<polygon class="st4" points="255.2,88.02 255.24,90.4 254.58,89.74 254.56,88.72 		"/>
		<polygon class="st49" points="254.6,89.75 253.57,89.72 252.88,90.38 255.24,90.4 		"/>
	</g>
	<g class="st78">
		<rect x="246.16" y="87.96" class="st34" width="2.19" height="2.39"/>
		<polygon class="st64" points="246.05,87.99 246.71,88.54 246.71,89.69 245.99,90.37 		"/>
		<polygon class="st21" points="246.05,87.99 248.39,87.96 247.7,88.69 246.71,88.69 		"/>
		<polygon class="st4" points="248.34,87.99 248.39,90.37 247.72,89.71 247.7,88.69 		"/>
		<polygon class="st49" points="247.75,89.72 246.71,89.69 246.02,90.35 248.39,90.37 		"/>
	</g>
	<g class="st78">
		<rect x="146.5" y="44.47" class="st70" width="7.2" height="3.75"/>
		<rect x="146.5" y="44.42" class="st86" width="1.02" height="3.8"/>
		<rect x="152.68" y="44.42" class="st86" width="1.02" height="3.8"/>
		<rect x="147.47" y="45" class="st86" width="0.93" height="0.57"/>
		<rect x="151.84" y="47.25" class="st86" width="1.15" height="0.57"/>
		<path class="st60" d="M148.4,45.31c0,0,1.5,0.49,1.55,1.15c0,0,0.13,0.53,0.49,0.18c0,0,0.53,0.66,0.88,0.79c0,0,0.53,0.13,0.66,0
			"/>
	</g>
	<g class="st78">
		<rect x="146.41" y="57.14" class="st70" width="7.2" height="3.75"/>
		<rect x="146.41" y="57.1" class="st86" width="1.02" height="3.8"/>
		<rect x="152.59" y="57.1" class="st86" width="1.02" height="3.8"/>
		<rect x="147.38" y="57.67" class="st86" width="0.93" height="0.57"/>
		<rect x="151.75" y="59.93" class="st86" width="1.15" height="0.57"/>
		<path class="st60" d="M148.31,57.98c0,0,1.5,0.49,1.55,1.15c0,0,0.13,0.53,0.49,0.18c0,0,0.53,0.66,0.88,0.79
			c0,0,0.53,0.13,0.66,0"/>
	</g>
	<g class="st78">
		<rect x="146.41" y="63.28" class="st70" width="7.2" height="3.75"/>
		<rect x="146.41" y="63.24" class="st86" width="1.02" height="3.8"/>
		<rect x="152.59" y="63.24" class="st86" width="1.02" height="3.8"/>
		<rect x="147.38" y="63.81" class="st86" width="0.93" height="0.58"/>
		<rect x="151.75" y="66.07" class="st86" width="1.15" height="0.58"/>
		<path class="st60" d="M148.31,64.12c0,0,1.5,0.49,1.55,1.15c0,0,0.13,0.53,0.49,0.18c0,0,0.53,0.66,0.88,0.79
			c0,0,0.53,0.13,0.66,0"/>
	</g>
	<rect x="122.03" y="57.41" class="st74" width="13.38" height="13.38"/>
	<g class="st78">
		<rect x="231.88" y="57.32" class="st70" width="7.2" height="3.75"/>
		<rect x="231.88" y="57.28" class="st86" width="1.02" height="3.8"/>
		<rect x="238.06" y="57.28" class="st86" width="1.02" height="3.8"/>
		<rect x="232.85" y="57.85" class="st86" width="0.93" height="0.58"/>
		<rect x="237.22" y="60.1" class="st86" width="1.15" height="0.57"/>
		<path class="st60" d="M233.78,58.16c0,0,1.5,0.49,1.55,1.15c0,0,0.13,0.53,0.49,0.18c0,0,0.53,0.66,0.88,0.79
			c0,0,0.53,0.13,0.66,0"/>
	</g>
	<g class="st78">
		<path class="st70" d="M75.29,30.44v-1.11c0,0,0.2-0.49,0.72-0.36c0,0,0.33,0.03,0.39,0.56l1.15-0.62l0.07,0.33l-1.25,0.75
			l-0.03,0.16l1.31,0.03v0.26H75.29z"/>
		<polygon class="st70" points="77.63,28.3 75.34,28.3 75.34,26.9 75.61,26.9 75.61,28.01 76.3,28.01 76.3,27.54 76.67,27.54 
			76.67,28.01 77.31,28.01 77.31,26.93 77.68,26.93 		"/>
		<path class="st70" d="M77.21,26.26l-0.17-0.27l0.22-0.15l0.02-0.81l-1.38,1.08c0,0-0.49,0.25-0.61-0.17v-0.96l0.2-0.25l0.34-0.02
			l0.02,0.22l-0.27,0.15v0.76l1.45-1.03c0,0,0.52-0.39,0.62,0.17l-0.02,0.98L77.21,26.26z"/>
		<polygon class="st70" points="77.58,24.05 75.29,24.05 75.29,22.65 75.56,22.65 75.56,23.75 76.25,23.75 76.25,23.29 76.62,23.29 
			76.62,23.75 77.26,23.75 77.26,22.67 77.63,22.67 		"/>
		<polygon class="st70" points="75.83,21.89 75.29,21.91 75.29,20.44 75.9,20.44 75.9,20.73 75.56,20.73 75.56,21 77.6,21 
			77.6,21.35 75.59,21.35 75.59,21.59 75.86,21.59 		"/>
		<path class="st84" d="M76.05,30.15l-0.49-0.02v-0.69c0,0,0.15-0.17,0.27-0.15c0,0,0.22,0.02,0.22,0.2V30.15z"/>
	</g>
	<rect x="70.13" y="124.86" class="st35" width="7.33" height="24.47"/>
	<rect x="77.28" y="125.74" class="st35" width="28.71" height="22.62"/>
	<rect x="70.66" y="125.21" class="st0" width="6.1" height="0.97"/>
	<rect x="70.74" y="147.83" class="st78" width="5.92" height="1.15"/>
	<rect x="85.65" y="106.17" class="st46" width="5.9" height="9.81"/>
	<rect x="100.09" y="103.19" class="st46" width="4.9" height="3.18"/>
	<rect x="100.09" y="109.35" class="st46" width="4.9" height="3.18"/>
	<rect x="100.09" y="115.65" class="st46" width="4.9" height="3.18"/>
	<path class="st53" d="M77.7,127.91l-0.07,2.05l13.05-0.13c0,0,3.98,0.86,4.84,3.38h9.94v-5.43h-28"/>
	<path class="st29" d="M77.46,146.41l-0.02-2.01l12.79,0.07c0,0,4.57-0.99,5.5-3.58h9.47l0.18,5.52H77.46z"/>
	<rect x="77.46" y="126.27" class="st0" width="27.92" height="1.5"/>
	<rect x="77.46" y="146.41" class="st78" width="27.92" height="1.5"/>
	<rect x="103.08" y="125.65" class="st14" width="0.18" height="22.7"/>
	<rect x="90.69" y="101.87" class="st72" width="9.61" height="18.22"/>
	<path class="st57" d="M168.6,44.09c0,0-6.49,0.27-7.35,7.62c0,0,0,6.49,6.89,7.95c0,0,5.83,0.99,9.67-4.97l0.07-5.63
		C177.88,49.06,174.3,43.23,168.6,44.09z M176.02,52.77c0,0-2.98,4.7-6.49,4.37c0,0-3.84-0.07-5.3-3.31c0,0-1.13-2.85,0.93-5.17
		c0,0,3.64-4.17,8.48-0.46c0,0,2.45,2.65,2.72,3.38C176.36,51.58,176.62,52.24,176.02,52.77z"/>
	<path class="st57" d="M187.09,44.09c-5.7-0.86-9.59,5.41-9.59,5.41l0.17,5.17c3.84,5.96,9.89,4.99,9.89,4.99
		c6.89-1.46,6.89-7.95,6.89-7.95C193.58,44.36,187.09,44.09,187.09,44.09z M191.61,53.83c-1.46,3.25-5.3,3.31-5.3,3.31
		c-3.51,0.33-6.49-4.37-6.49-4.37c-0.6-0.53-0.33-1.19-0.33-1.19c0.27-0.73,2.72-3.38,2.72-3.38c4.84-3.71,8.48,0.46,8.48,0.46
		C192.74,50.98,191.61,53.83,191.61,53.83z"/>
	<rect x="167.08" y="50.85" class="st57" width="5.23" height="1.72"/>
	<rect x="185.17" y="49.19" class="st57" width="1.79" height="5.1"/>
	<rect x="183.44" y="50.85" class="st57" width="5.1" height="1.79"/>
</g>
<g id="Layer_11">
</g>
<g id="Layer_12">
	<rect class="st32" width="319" height="172"/>
</g>
</svg>
